<?xml version="1.0" encoding="utf-8"?>
<!-- Generator: Adobe Illustrator 15.0.0, SVG Export Plug-In . SVG Version: 6.00 Build 0)  -->
<!DOCTYPE svg PUBLIC "-//W3C//DTD SVG 1.1//EN" "http://www.w3.org/Graphics/SVG/1.1/DTD/svg11.dtd">
<svg version="1.1" xmlns="http://www.w3.org/2000/svg" xmlns:xlink="http://www.w3.org/1999/xlink" x="0px" y="0px"
	 width="73.701px" height="73.701px" viewBox="0 0 73.701 73.701" enable-background="new 0 0 73.701 73.701" xml:space="preserve">
<g id="LCF">
	<g id="LUMS_x5F_Text">
		<g>
			<text transform="matrix(1 0 0 1 13.8774 69.9575)" fill="#9E1E25" font-family="'Lexia-Light'" font-size="14.5">CMAF</text>
		</g>
	</g>
</g>
<g id="Logo">
	<g id="LUMS_Logo_1_">
		<path fill="#BABDC1" d="M13.142,32.466l-1.853,6.996c-1.072,4.048-1.942,9.685-1.934,16.258h10.623
			c0.141-0.154,0.321-0.27,0.528-0.321c-0.466-0.34-0.852-0.867-1.155-1.58c-0.051-0.115-0.097-0.243-0.146-0.376
			c-0.12-0.324-0.301-0.815-0.502-0.978c-0.087-0.07-0.216-0.135-0.34-0.2c-0.299-0.151-0.797-0.406-0.831-1l0.001-0.001
			l-0.001-0.004c-0.03-0.596,0.439-0.903,0.72-1.089c0.117-0.076,0.238-0.154,0.317-0.233c0.183-0.185,0.31-0.692,0.394-1.028
			c0.035-0.138,0.067-0.269,0.106-0.389c0.208-0.683,0.487-1.176,0.806-1.526l-0.022-0.006c-0.364-0.098-0.654-0.387-0.753-0.752
			l-0.249-0.919c-0.073-0.276-0.037-0.565,0.105-0.814s0.37-0.426,0.643-0.501l0.912-0.252c0.181-0.049,0.372-0.049,0.553,0
			c0.267,0.071,0.493,0.244,0.634,0.475c0.178-0.551,0.558-1.086,1.134-1.596c0.096-0.084,0.202-0.169,0.313-0.257
			c0.268-0.214,0.675-0.54,0.768-0.782c0.04-0.106,0.063-0.25,0.082-0.388c0.052-0.333,0.139-0.889,0.692-1.106h0.005l-0.001-0.001
			c0.189-0.074,0.399-0.084,0.604-0.029c0.262,0.071,0.457,0.229,0.644,0.381c0.11,0.089,0.221,0.18,0.32,0.231
			c0.028,0.015,0.062,0.027,0.105,0.039c0.264,0.071,0.665,0.044,0.987,0.022c0.14-0.009,0.274-0.019,0.401-0.021
			c0.451-0.007,0.859,0.037,1.214,0.132c0.146,0.039,0.307,0.095,0.476,0.173c-0.029-0.377,0.141-0.759,0.477-0.981l0.791-0.522
			c0.252-0.166,0.565-0.217,0.857-0.139c0.253,0.068,0.472,0.226,0.616,0.447l0.518,0.796c0.156,0.239,0.21,0.524,0.15,0.805
			c-0.035,0.181-0.116,0.344-0.232,0.48c0.278-0.001,0.53,0.042,0.741,0.098c0.354,0.095,0.73,0.261,1.117,0.493
			c0.109,0.066,0.22,0.139,0.338,0.218c0.27,0.18,0.602,0.404,0.868,0.475c0.04,0.011,0.078,0.017,0.11,0.019
			c0.11,0.005,0.254-0.018,0.391-0.04c0.238-0.039,0.484-0.078,0.749-0.007c0.202,0.054,0.379,0.167,0.509,0.327l-0.093,0.075
			l0.002,0.002l0.092-0.074c0.374,0.464,0.172,0.989,0.053,1.304c-0.05,0.132-0.101,0.268-0.119,0.377
			c-0.04,0.258,0.152,0.744,0.279,1.066c0.051,0.131,0.102,0.255,0.143,0.377c0.215,0.631,0.292,1.203,0.235,1.713
			c0.211-0.088,0.45-0.107,0.681-0.045c0.144,0.038,0.276,0.105,0.391,0.198l0.739,0.596c0.22,0.179,0.357,0.434,0.39,0.717
			c0.031,0.285-0.048,0.566-0.227,0.788l-0.592,0.744c-0.264,0.33-0.697,0.473-1.103,0.364c-0.046-0.012-0.089-0.026-0.129-0.043
			c0.16,0.502,0.19,1.142,0.008,1.96c-0.029,0.124-0.065,0.253-0.102,0.39c-0.093,0.334-0.234,0.839-0.165,1.09
			c0.029,0.108,0.094,0.237,0.159,0.362c0.039,0.077,0.084,0.166,0.124,0.266h22.948h1.247h1.083h0.208h0.653v-0.467v-0.85v-0.472
			v-0.477V46.19L13.142,32.466z"/>
		<path fill="#9E1E25" d="M49.429,11.165c-0.132,0.003-0.241,0.016-0.322,0.033c-0.04,0.009-0.073,0.018-0.102,0.029l-0.041,0.021
			c-0.159,0.086,0.113,0.202,0.159,0.236c0.133,0.099,0.254,0.233,0.353,0.362c0.001,0.002,0.035,0.046,0.035,0.046l0.051-0.024
			c0,0,0.214-0.105,0.429-0.21c0.096-0.048,0.456-0.163,0.471-0.291C50.485,11.158,49.57,11.16,49.429,11.165"/>
		<path fill="#9E1E25" d="M13.419,31.416l50.927,13.65v-4.644c-0.063-0.004-0.12-0.001-0.189-0.011
			c-0.248-0.034-0.529-0.098-0.808-0.172c-0.363-0.098-0.721-0.212-0.986-0.303c-0.251-0.084-0.418-0.148-0.437-0.156
			c-0.014-0.007-0.062-0.032-0.131-0.05c-0.046-0.013-0.105-0.022-0.162-0.014c-0.061,0.008-0.124,0.037-0.171,0.095
			c-0.025,0.031-0.042,0.065-0.051,0.098c-0.024,0.095,0.009,0.174,0.039,0.227c0.034,0.055,0.068,0.087,0.073,0.091
			c0.001,0.001,0.608,0.547,0.608,0.547c-0.488-0.07-1.618-0.23-2.069-0.264c-0.478-0.035-1.846-0.034-1.971-0.035
			c-0.019-0.006-0.059-0.022-0.124-0.044c-0.301-0.11-1.064-0.416-1.829-0.892c-0.766-0.477-1.527-1.129-1.831-1.917
			c-0.085-0.219-0.174-0.583-0.066-0.99c0.014-0.052,0.032-0.102,0.051-0.154c0.104-0.274,0.414-0.649,0.576-0.987
			c0.173-0.366,0.195-0.673,0.332-0.867c0.087-0.124,0.188-0.222,0.268-0.289c0.042-0.033,0.077-0.058,0.103-0.075l0.031-0.021
			c0.261-0.118,0.553-0.046,0.565-0.042c0.007,0.002,0.77,0.228,1.229,0.35c0.077,0.021,0.146,0.04,0.203,0.053
			c0.08,0.022,0.109,0.045,0.119,0.058l0.006,0.045c-0.007,0.029-0.031,0.066-0.057,0.095l-0.033,0.035
			c-0.052,0.037-0.681,0.411-0.845,1.01c-0.061,0.226-0.048,0.486,0.094,0.756c0.278,0.526,0.888,0.878,1.435,1.025
			c0.161,0.043,0.315,0.069,0.461,0.076c0.514,0.016,0.988-0.259,1.496-0.284c0.413-0.025,0.834,0.117,1.106,0.158
			c0.318,0.053,0.561,0.024,0.795-0.055c0.379-0.133,0.841-0.357,1.103-0.67c0.323-0.384,0.266-0.737,0.153-1.184
			c-0.13-0.517,0.102-0.979,0.23-1.463c0.016-0.06,0.024-0.11,0.023-0.154c0.002-0.045-0.009-0.087-0.03-0.123
			c-0.028-0.047-0.072-0.079-0.114-0.089c-0.064-0.017-0.119,0-0.161,0.014c-0.037,0.016-0.063,0.03-0.065,0.035
			c-0.016,0.009-0.337,0.209-0.685,0.515c0.125-0.381,0.304-0.76,0.464-1.053c0.098-0.179,0.187-0.33,0.253-0.436
			c0.065-0.105,0.106-0.164,0.106-0.164c0.003-0.008,0.054-0.092,0.083-0.202c0.018-0.068,0.028-0.144,0.004-0.221
			c-0.022-0.079-0.09-0.149-0.194-0.175c-0.043-0.012-0.094-0.017-0.15-0.017c-0.169,0.003-0.438,0.103-0.679,0.202
			c-0.077,0.03-0.149,0.061-0.215,0.091c0.279-0.402,0.996-1.311,2.044-1.884v-1.806c-2.807,0.024-5.922,1.133-8.996,1.903
			c-1.63,0.408-3.154,0.565-4.277,0.618c-0.558,0.027-1.015,0.032-1.333,0.026c-0.159-0.002-0.318,0.056-0.422,0.073
			c-0.031,0.003-0.272,0.059-0.378,0.08l0.532,1.183c-0.169,0.05-0.661,0.152-1.433-0.053c-0.129-0.035-0.267-0.079-0.412-0.133
			c-0.023-0.01-0.057-0.021-0.095-0.031c-0.057-0.015-0.124-0.028-0.196-0.022c-0.07,0.006-0.147,0.03-0.206,0.091
			c-0.036,0.042-0.062,0.088-0.074,0.131c-0.031,0.129,0.02,0.231,0.022,0.237c0.005,0.011,0.137,0.239,0.424,0.458
			c-0.321,0.121-0.714,0.102-1.118-0.006c-0.474-0.127-0.955-0.363-1.312-0.567c-0.182-0.104-0.33-0.197-0.434-0.266
			c-0.102-0.066-0.158-0.107-0.164-0.112c-0.018-0.015-0.149-0.144-0.312-0.19c-0.073-0.02-0.163-0.021-0.237,0.038
			c-0.062,0.044-0.099,0.101-0.114,0.159c-0.033,0.134,0.038,0.237,0.045,0.254c0,0,0.215,0.376,0.527,0.873
			c-0.271,0.113-0.692,0.072-1.123-0.046c-0.394-0.105-0.794-0.267-1.093-0.403c-0.151-0.065-0.275-0.127-0.362-0.171
			c-0.089-0.044-0.138-0.069-0.138-0.069c-0.003-0.001-0.303-0.164-0.547-0.23c-0.101-0.026-0.193-0.045-0.279-0.002
			c-0.056,0.032-0.098,0.084-0.112,0.141c-0.025,0.101,0.011,0.201,0.063,0.3c0.094,0.18,0.264,0.367,0.381,0.487
			c-0.195-0.008-0.416-0.047-0.648-0.109c-0.821-0.218-1.772-0.744-2.205-1.29c-0.02-0.025-0.052-0.084-0.095-0.139
			c-0.044-0.059-0.103-0.119-0.192-0.143c-0.08-0.021-0.174-0.005-0.275,0.055c-0.048,0.029-0.079,0.076-0.091,0.127
			c-0.024,0.096,0.002,0.201,0.043,0.312c0.064,0.167,0.17,0.349,0.259,0.498c0.046,0.072,0.085,0.137,0.112,0.186
			c-0.057,0.008-0.133,0-0.228-0.026c-0.278-0.074-0.69-0.282-1.21-0.57c-0.362-0.198-0.607-0.337-0.826-0.398
			c-0.128-0.035-0.25-0.038-0.369-0.002c-0.119,0.034-0.232,0.105-0.359,0.211c-0.189,0.162-0.424,0.218-0.613,0.233
			c-0.093,0.007-0.176,0.004-0.235-0.002c-0.03-0.002-0.053-0.005-0.067-0.007l-0.024-0.004l-1.32-0.277
			c-0.549-0.134-0.877,0.027-1.176,0.243c-0.491,0.418-0.842,0.488-1.085,0.423c-0.26-0.069-0.425-0.308-0.496-0.507
			c-0.097-0.268-0.213-0.736-0.34-1.108c-0.035-0.097-0.033-0.158-0.023-0.196c0.007-0.026,0.019-0.041,0.031-0.054
			c0.276-0.083,0.523-0.149,0.737-0.199c0.334-0.081,0.595-0.126,0.766-0.153c0.086-0.011,0.154-0.02,0.196-0.025l0.049-0.004
			c0.118-0.01,0.207-0.085,0.233-0.184c0.007-0.027,0.009-0.054,0.007-0.081c-0.008-0.107-0.081-0.196-0.181-0.223
			c-0.026-0.006-0.052-0.007-0.081-0.007c-0.029,0.004-1.056,0.078-2.766,0.702c-0.002,0.001-0.052-0.007-0.052-0.007
			c-0.164-0.042-0.532-0.275-0.693-0.762c-0.128-0.38-0.125-0.888-0.05-1.404c0.067,0.018,0.136,0.037,0.204,0.055
			c1.887,0.506,2.996,0.474,3.016,0.474c0.113-0.004,0.203-0.082,0.23-0.185l0.008-0.071c-0.005-0.11-0.079-0.204-0.182-0.231
			l-0.063-0.006c-0.052-0.001-1.105,0.017-2.883-0.459c-0.078-0.021-0.16-0.043-0.24-0.066c0.019-0.086,0.04-0.169,0.062-0.253
			c0.044-0.166,0.092-0.328,0.145-0.482c0.215-0.636,0.755-1.057,1.301-1.333c0.074,0.18,0.174,0.387,0.31,0.609
			c0.181,0.297,0.42,0.615,0.732,0.89c0.275,0.242,0.607,0.446,0.997,0.578c0.154,0.32,0.467,0.515,0.859,0.62
			c0.255,0.069,0.516,0.115,0.777,0.139c0.956,0.094,1.909-0.051,2.839-0.272c0.645-0.151,1.282-0.315,1.917-0.51
			c0.996-0.305,1.998-0.586,3.016-0.81c1.966-0.43,2.957-0.435,3.447-0.362c0.114,0.019,0.228,0.038,0.33,0.066
			c0.255,0.068,0.386,0.154,0.425,0.212c0.019,0.029,0.005,0.097-0.002,0.125c-0.03,0.113-0.115,0.306-0.358,0.591
			c-0.106,0.125-0.204,0.22-0.253,0.269l-0.589,0.56l0.698,0.445c0.12,0.074,0.254,0.131,0.398,0.17
			c0.429,0.115,0.89,0.056,1.373-0.174c0.244-0.119,0.494-0.282,0.744-0.488l-0.434,1.639l1.07-0.311
			c0.08-0.024,0.187-0.059,0.325-0.11c0.03-0.013,0.061-0.026,0.092-0.042c0.394-0.174,0.777-0.385,0.958-0.506
			c0.803-0.546,1.421-1.289,1.82-2.184l0.254,0.898l0.761-0.834c0.028-0.03,0.057-0.063,0.091-0.105
			c0.098-0.116,0.251-0.309,0.427-0.568c0.299-0.449,0.708-1.176,0.953-2.099c0.011-0.043,0.021-0.086,0.033-0.129l0.346,1.157
			l0.605-2.183l0.023-0.088c0.733,0.015,3.091,0.084,5.561,0.342c1.508,0.158,3.047,0.416,4.297,0.659v-1.044
			c-0.64-0.126-1.272-0.262-1.875-0.419c-0.031-0.007-0.065-0.016-0.096-0.024c-1.523-0.409-2.691-1.022-3.417-1.73
			c-0.728-0.71-1.012-1.504-0.801-2.306c0.252-0.936,0.877-1.402,1.747-1.571c0.87-0.167,1.975-0.022,3.135,0.29
			c0.24,0.064,0.481,0.135,0.724,0.212c0.112,0.034,0.22,0.067,0.326,0.095c0.091,0.024,0.17,0.032,0.257,0.052V9.613
			c-1.286-0.353-2.037-0.544-2.037-0.544S36.226,1.672,20.82,3.466L13.419,31.416z M56.721,32.713
			c0.234,0.062,0.516,0.187,0.74,0.431c0.206,0.223,0.365,0.555,0.396,1.045c-0.038-0.015-0.078-0.032-0.123-0.044l-0.025-0.007
			h-0.001c-0.051-0.011-0.115-0.027-0.186-0.046c-0.087-0.024-0.186-0.052-0.287-0.081l0.001-0.148l0.001-0.002
			c0.001-0.216-0.078-0.678-0.587-1.098c-0.04-0.031-0.075-0.062-0.109-0.087C56.596,32.686,56.655,32.695,56.721,32.713
			 M52.827,38.837c-0.032,0.137-0.035,0.271-0.017,0.405c-0.142,0.078-0.291,0.193-0.439,0.358
			c-0.035,0.038-0.065,0.073-0.094,0.106c0.003-0.01,0.003-0.02,0.006-0.031c0.063-0.266,0.21-0.656,0.569-0.92
			C52.845,38.782,52.833,38.809,52.827,38.837 M53.814,37.636c-0.041,0.064-0.103,0.099-0.177,0.118
			c-0.083,0.017-0.175,0.01-0.229-0.003L53.37,37.74c-0.22-0.058-0.478-0.193-0.816-0.439c-0.08-0.058-0.116-0.119-0.135-0.188
			c-0.017-0.067-0.012-0.146,0.009-0.226c0.043-0.163,0.149-0.334,0.219-0.452c0.126-0.207,0.219-0.307,0.289-0.349
			c0.067-0.038,0.108-0.035,0.177-0.019c0.035,0.01,0.076,0.026,0.123,0.038l0.042,0.01c0.02,0.004,0.046,0.01,0.074,0.017
			c0.141,0.038,0.348,0.11,0.505,0.164l-0.003,0.013c-0.028,0.065-0.05,0.135-0.067,0.199
			C53.666,36.963,53.733,37.367,53.814,37.636 M55.055,39.337c-0.058,0.101-0.152,0.243-0.284,0.352
			c-0.156,0.125-0.352,0.204-0.612,0.136c-0.137-0.037-0.29-0.116-0.467-0.259c-0.224-0.184-0.337-0.354-0.385-0.499
			c-0.049-0.146-0.041-0.272-0.015-0.371c0.021-0.08,0.056-0.146,0.078-0.187c0.01-0.021,0.05-0.063,0.092-0.101
			c0.046-0.036,0.097-0.069,0.129-0.088c0.055-0.028,0.137-0.076,0.226-0.116c0.083-0.037,0.168-0.055,0.227-0.041
			C54.292,38.607,54.653,39,55.055,39.337 M54.019,33.829c0.119,0.032,0.198,0.113,0.259,0.192c0.088,0.115,0.277,0.419,0.394,0.613
			c-0.03,0.085-0.06,0.171-0.086,0.255c-0.038,0.13-0.076,0.263-0.143,0.396c-0.057,0.122-0.155,0.272-0.251,0.418
			c-0.045,0.069-0.087,0.139-0.131,0.209c-0.085,0.006-0.195-0.005-0.338-0.043c-0.085-0.023-0.182-0.056-0.289-0.098
			c-0.218-0.086-0.339-0.154-0.394-0.207c-0.051-0.053-0.053-0.077-0.046-0.147c0.003-0.025,0.008-0.05,0.014-0.074
			c0.017-0.062,0.045-0.135,0.067-0.219c0.043-0.16,0.064-0.359-0.025-0.629c-0.032-0.093-0.031-0.163-0.016-0.221
			c0.025-0.097,0.102-0.174,0.223-0.24c0.118-0.069,0.27-0.121,0.417-0.173C53.823,33.806,53.933,33.806,54.019,33.829
			 M52.989,33.37c0.101,0.027,0.201,0.074,0.3,0.129c-0.139,0.057-0.296,0.137-0.434,0.248c-0.131-0.093-0.297-0.182-0.511-0.239
			c-0.063-0.017-0.129-0.031-0.199-0.042c-0.051-0.007-0.095-0.013-0.139-0.02C52.231,33.359,52.6,33.265,52.989,33.37
			 M51.472,36.306c0.22-0.176,0.519-0.313,0.899-0.306c-0.043,0.064-0.089,0.127-0.13,0.194l-0.001,0.002l-0.021,0.038
			c-0.031,0.05-0.075,0.128-0.119,0.221c-0.22-0.027-0.5-0.006-0.832,0.137c-0.046,0.022-0.088,0.043-0.128,0.059
			C51.219,36.546,51.327,36.421,51.472,36.306 M28.55,32.049c0.083-0.315,0.274-0.657,0.691-0.891
			c0.009,0.06,0.022,0.121,0.046,0.191c0.034,0.101,0.07,0.214,0.103,0.328c-0.266,0.106-0.597,0.31-0.831,0.709
			c-0.026,0.045-0.048,0.085-0.069,0.125C28.49,32.385,28.504,32.222,28.55,32.049 M40.348,11.713
			c0.248-0.191,0.596-0.138,0.776,0.115l0.039,0.067c0.279,0.54,0.817,0.935,1.471,1.191c0.65,0.257,1.378,0.408,2.111,0.57
			c0.73,0.161,1.48,0.325,2.188,0.625c0.705,0.292,1.366,0.761,1.761,1.424c-0.476-0.604-1.153-0.959-1.854-1.152
			c-0.707-0.197-1.441-0.26-2.187-0.329c-0.744-0.066-1.505-0.117-2.279-0.314c-0.388-0.1-0.78-0.242-1.154-0.464
			c-0.373-0.219-0.719-0.529-0.985-0.904l-0.012-0.02C40.042,12.268,40.098,11.905,40.348,11.713 M36.431,10.363
			c0.028-0.107,0.048-0.226,0.056-0.358c0.005-0.083,0.01-0.153,0.01-0.214c0.059,0.074,0.131,0.178,0.192,0.304
			c0.098,0.21,0.16,0.475,0.082,0.767c-0.067,0.255-0.242,0.534-0.608,0.819c-0.038-0.216-0.142-0.41-0.236-0.551
			C36.064,11.031,36.314,10.803,36.431,10.363 M32.626,7.468c0.217,0.058,0.494,0.18,0.681,0.432
			c0.169,0.231,0.274,0.573,0.193,1.095c-0.088-0.104-0.221-0.205-0.422-0.259c-0.036-0.009-0.075-0.014-0.112-0.02
			c0.03-0.238,0.008-0.652-0.347-1.112c-0.051-0.066-0.094-0.118-0.136-0.168C32.528,7.445,32.574,7.454,32.626,7.468 M31.765,9.37
			c0.245-0.212,0.645-0.199,0.949-0.2c0.098-0.002,0.18,0.008,0.242,0.025c0.163,0.046,0.223,0.126,0.255,0.233
			c0.03,0.109,0.012,0.251-0.024,0.385c-0.026,0.1-0.063,0.193-0.091,0.269c-0.044,0.112-0.169,0.312-0.301,0.511
			c-0.115,0.173-0.235,0.341-0.326,0.466c-0.064-0.045-0.136-0.083-0.219-0.105c-0.16-0.043-0.342-0.038-0.539,0.01
			c-0.002,0-0.015,0.005-0.015,0.005c-0.029,0.008-0.054,0.018-0.082,0.026c0.014-0.005-0.034-0.523-0.037-0.571
			c-0.01-0.179-0.011-0.36-0.013-0.538C31.586,9.698,31.613,9.5,31.765,9.37 M30.661,9.734c0.087,0.023,0.136,0.082,0.169,0.145
			l0.032,0.078l0.005,0.024l0.001,0.009v0.002l0.274,1.206c-0.333,0.183-0.612,0.433-0.825,0.744
			c-0.3-0.333-0.665-0.732-0.853-0.928c-0.149-0.162-0.154-0.293-0.126-0.401c0.015-0.059,0.042-0.112,0.068-0.146l0.031-0.04
			l0.008-0.011l0.001-0.002l0.001-0.003c0,0,0.024-0.022,0.069-0.066c0.129-0.125,0.446-0.4,0.839-0.565
			C30.498,9.718,30.595,9.716,30.661,9.734 M28.787,8.77c0.208-0.1,0.472-0.165,0.763-0.087c0.247,0.066,0.521,0.24,0.801,0.6
			c-0.059,0.015-0.119,0.033-0.179,0.058c-0.129,0.055-0.251,0.12-0.361,0.188c-0.1-0.139-0.327-0.385-0.758-0.5
			c-0.106-0.029-0.223-0.048-0.355-0.057c-0.081-0.006-0.152-0.011-0.213-0.011C28.56,8.9,28.661,8.828,28.787,8.77 M27.339,11.612
			c0.229-0.18,0.543-0.307,0.979-0.19c0.162,0.044,0.339,0.122,0.536,0.244c-0.004,0.003-0.005,0.005-0.008,0.006
			c-0.044,0.031-0.244,0.175-0.435,0.399c-0.078-0.051-0.194-0.112-0.349-0.153c-0.216-0.058-0.508-0.078-0.865,0.026
			c-0.08,0.024-0.148,0.044-0.204,0.066C27.062,11.895,27.177,11.74,27.339,11.612 M27.383,29.245
			c-0.283,0.04-0.652,0.163-0.971,0.5c-0.034,0.037-0.066,0.073-0.094,0.105c0.005-0.016,0.007-0.03,0.011-0.046
			c0.051-0.191,0.146-0.439,0.33-0.657c0.166-0.2,0.41-0.371,0.759-0.456C27.396,28.873,27.383,29.056,27.383,29.245 M28.467,26.17
			c-0.121-0.07-0.259-0.139-0.43-0.185c-0.18-0.049-0.389-0.071-0.621-0.042c-0.05,0.006-0.095,0.012-0.139,0.02
			c0.089-0.067,0.203-0.144,0.341-0.208c0.257-0.116,0.586-0.193,0.959-0.093c0.116,0.031,0.237,0.085,0.36,0.153
			C28.758,25.93,28.6,26.048,28.467,26.17 M29.807,14.032c-0.274-0.173-0.594-0.373-0.923-0.571
			c-0.181-0.11-0.283-0.225-0.331-0.335c-0.05-0.11-0.052-0.22-0.022-0.336c0.077-0.306,0.405-0.608,0.581-0.727
			c0.159-0.107,0.365-0.068,0.523,0.018c0.053,0.031,0.433,0.306,0.407,0.369c-0.017,0.045-0.035,0.089-0.052,0.139
			c-0.023,0.07-0.046,0.139-0.066,0.212C29.821,13.192,29.79,13.61,29.807,14.032 M31.829,26.61l-0.018,0.05l-0.005,0.009h-0.003
			c-0.017,0.018-0.211,0.254-0.308,0.607c-0.023,0.085-0.034,0.176-0.041,0.271c-0.217-0.103-0.413-0.232-0.583-0.382
			c-0.399-0.349-0.675-0.8-0.845-1.159c-0.03-0.06-0.052-0.114-0.074-0.167c0.241-0.09,0.462-0.156,0.636-0.201
			c0.093-0.024,0.172-0.043,0.23-0.055c0.06-0.014,0.095-0.02,0.119-0.028c0.105-0.036,0.184-0.031,0.24-0.016
			c0.027,0.007,0.05,0.019,0.065,0.026l0.014,0.007c0.015,0.022,0.072,0.097,0.153,0.207c0.095,0.129,0.217,0.295,0.323,0.458
			C31.854,26.422,31.845,26.544,31.829,26.61 M31.99,25.774c-0.184-0.262-0.362-0.488-0.371-0.503l0.001,0.002l-0.022-0.029
			l-0.005-0.008l-0.037-0.029c-0.014-0.011-0.038-0.028-0.067-0.044c0.037-0.231,0.036-0.665-0.341-1.15
			c-0.031-0.04-0.06-0.075-0.087-0.11c0.17,0.069,0.403,0.194,0.598,0.401C31.934,24.597,32.135,25.051,31.99,25.774 M31.919,17.502
			c-0.178-0.044-0.438-0.271-0.835-0.828c-0.512-0.706-1.052-2.449-0.704-3.745c0.186-0.696,0.613-1.262,1.441-1.504
			c0.135-0.031,0.267-0.037,0.35-0.015c0.038,0.01,0.063,0.028,0.077,0.041l0.02,0.051c0,0.075-0.042,0.251-0.039,0.404
			c0.016,1.147,0.484,4.127,0.508,4.264l-0.001,0.001c0.025,0.129,0.045,0.427-0.024,0.682c-0.036,0.136-0.099,0.261-0.19,0.346
			c-0.11,0.093-0.21,0.174-0.287,0.235C32.122,17.504,32.032,17.53,31.919,17.502 M37.977,26.369
			c-0.708-0.366-1.34-1.32-1.793-2.223c-0.247-0.492-0.443-0.968-0.578-1.321c-0.07-0.176-0.121-0.322-0.155-0.422
			c-0.035-0.1-0.054-0.156-0.054-0.156l-0.012-0.037l-0.002-0.001c-0.013-0.029-0.029-0.068-0.052-0.108
			c-0.018-0.036-0.04-0.075-0.068-0.107c-0.028-0.032-0.059-0.063-0.108-0.077l-0.009-0.001h-0.001l-0.001-0.001
			c-0.059-0.015-0.121,0.018-0.148,0.056c-0.028,0.038-0.041,0.079-0.05,0.114c-0.007,0.026-0.012,0.049-0.016,0.065
			c-0.019,0.072-0.06,0.302-0.139,0.598c-0.017,0.066-0.039,0.139-0.061,0.211c-0.535-0.416-0.847-1.038-1.018-1.569
			c-0.091-0.28-0.144-0.533-0.175-0.717c-0.015-0.092-0.024-0.166-0.03-0.217c-0.006-0.051-0.009-0.076-0.009-0.076l0.001-0.001
			c-0.022-0.255-0.002-0.503-0.001-0.638c0.002-0.126-0.082-0.218-0.177-0.241c-0.118-0.032-0.262,0.025-0.309,0.169
			c-0.048,0.144-0.128,0.372-0.173,0.545l-0.012,0.045c-0.008,0.027-0.013,0.052-0.019,0.075c-0.036,0.136-0.072,0.222-0.098,0.264
			l-0.024,0.029c-0.014-0.011-0.041-0.046-0.064-0.099c-0.027-0.052-0.053-0.119-0.078-0.184c-0.065-0.175-0.171-0.549-0.26-0.876
			c-0.088-0.325-0.16-0.607-0.16-0.607c-0.059-0.226-0.048-0.403-0.012-0.54c0.038-0.143,0.107-0.242,0.164-0.307
			c0.029-0.031,0.055-0.056,0.072-0.07l0.022-0.016l0.004-0.005l0.001,0.001l0.003-0.002l0.002-0.001
			c0.002-0.001,0.208-0.156,0.449-0.366c0.182-0.159,0.285-0.37,0.341-0.579c0.116-0.444,0.029-0.887,0.029-0.894
			c-0.001-0.011-0.032-0.198-0.076-0.494c-0.138-0.915-0.414-2.856-0.422-3.687c-0.003-0.133,0.014-0.258,0.045-0.374
			c0.215-0.822,1.169-1.268,1.454-1.426c0.164-0.092,0.244-0.087,0.271-0.08l0.015,0.008l0.002,0.002l0.007,0.007
			c0,0,0.075,0.088,0.231,0.286c0.155,0.199,0.392,0.503,0.714,0.933c0.256,0.338,0.289,0.532,0.264,0.614
			c-0.017,0.064-0.061,0.092-0.113,0.114l-0.07,0.017L35.5,12.004h-0.005h-0.003h-0.003c-0.545,0.053-0.943,0.2-1.224,0.407
			c-0.282,0.208-0.445,0.472-0.519,0.75c-0.139,0.535,0.034,1.109,0.266,1.457c1.875,3.055,4.321,4.577,6.076,5.324l0.274,0.167
			c0.035,0.022,0.076,0.046,0.13,0.076c0.084,0.045,0.186,0.101,0.296,0.16c-0.36,0.118-0.71,0.283-1.037,0.488
			c-1.062,0.667-1.819,1.707-2.252,3.09l-0.417,1.372l1.298-0.612c0.075-0.037,0.163-0.078,0.263-0.118
			c-0.264,0.346-0.458,0.742-0.568,1.158C38.02,25.93,37.99,26.148,37.977,26.369 M56.117,13.697
			c-0.202,0.762-0.908,1.373-1.353,1.673l-0.046,0.031l0.021,0.053c0.706,2.032,0.494,3.671,0.359,4.19
			c-0.085-0.243-0.224-0.639-0.224-0.639c0-0.005-0.02-0.061-0.053-0.127c-0.037-0.07-0.083-0.151-0.158-0.201
			c-0.025-0.018-0.053-0.029-0.08-0.036c-0.057-0.015-0.12-0.012-0.17,0.02c-0.053,0.033-0.091,0.089-0.11,0.159
			c-0.016,0.064-0.018,0.143-0.003,0.237c0.122,1.621-0.215,3.234-0.444,4.098c-0.007,0.028-0.014,0.051-0.021,0.075
			c-0.11-0.375-0.288-0.95-0.287-0.951c-0.054-0.193-0.132-0.302-0.241-0.335c-0.059-0.017-0.123,0-0.163,0.036
			c-0.046,0.036-0.077,0.087-0.092,0.144c-0.01,0.038-0.014,0.081-0.009,0.124c0.073,0.767-0.011,1.459-0.171,2.063
			c-0.214,0.81-0.567,1.458-0.866,1.906c-0.149,0.225-0.284,0.396-0.383,0.513c-0.03,0.034-0.054,0.062-0.077,0.087
			c-0.02-0.079-0.051-0.189-0.085-0.315c-0.063-0.243-0.134-0.545-0.16-0.762c-0.012-0.106-0.036-0.191-0.07-0.256
			c-0.034-0.063-0.08-0.113-0.143-0.131c-0.065-0.017-0.133,0.009-0.179,0.058c-0.045,0.046-0.079,0.113-0.102,0.199
			c-0.008,0.029-0.014,0.062-0.019,0.096c-0.029,0.158-0.061,0.309-0.099,0.453c-0.367,1.386-1.162,2.204-1.866,2.681
			c-0.352,0.238-0.682,0.389-0.921,0.48c-0.116,0.044-0.208,0.075-0.277,0.093c0.098-0.368,0.398-1.51,0.508-1.951
			c0.021-0.086,0.017-0.171-0.007-0.242c-0.025-0.07-0.069-0.133-0.145-0.153c-0.045-0.013-0.093-0.007-0.137,0.014
			c-0.044,0.024-0.082,0.059-0.12,0.108c-0.626,0.802-1.154,1.22-1.575,1.422c-0.42,0.2-0.732,0.192-0.94,0.136
			c-0.103-0.028-0.177-0.067-0.228-0.098c0.057-0.071,0.168-0.182,0.291-0.322c0.189-0.227,0.403-0.527,0.487-0.839
			c0.057-0.217,0.051-0.446-0.085-0.645c-0.133-0.199-0.383-0.362-0.784-0.469c-0.119-0.032-0.254-0.061-0.404-0.082
			c-0.955-0.142-2.427,0.099-3.667,0.369c-1.04,0.23-1.912,0.48-2.169,0.558c-0.093-0.52-0.065-0.963,0.033-1.333
			c0.143-0.538,0.427-0.932,0.677-1.19c0.124-0.129,0.24-0.224,0.325-0.286c0.041-0.031,0.076-0.054,0.099-0.069l0.035-0.023
			c0.005-0.003,0.046-0.028,0.093-0.069c0.047-0.043,0.101-0.098,0.122-0.177c0.015-0.049,0.007-0.112-0.033-0.159
			c-0.039-0.051-0.099-0.084-0.183-0.11c-0.482-0.075-0.881-0.004-1.192,0.094c-0.218,0.069-0.393,0.154-0.526,0.217
			c0.458-1.462,1.252-2.282,1.984-2.744c0.759-0.474,1.449-0.569,1.619-0.592c0.134-0.018,0.227-0.044,0.292-0.084
			c0.066-0.037,0.109-0.094,0.121-0.15c0.009-0.033,0.01-0.063,0.01-0.091c0.001-0.054-0.025-0.093-0.052-0.125
			c-0.076-0.086-0.196-0.137-0.21-0.142c0,0-0.318-0.162-0.636-0.326c-0.158-0.083-0.317-0.167-0.433-0.232
			c-0.043-0.024-0.078-0.045-0.106-0.063c1.31-0.972,2.755-0.79,3.523-0.584c0.171,0.045,0.307,0.091,0.4,0.126
			c0.047,0.018,0.083,0.032,0.107,0.041c0.024,0.011,0.035,0.017,0.035,0.017c0.055,0.024,0.103,0.04,0.149,0.052
			c0.12,0.032,0.218,0.032,0.296,0.004c0.077-0.029,0.132-0.086,0.15-0.154c0.018-0.091-0.016-0.154-0.044-0.197
			c-0.03-0.045-0.061-0.075-0.061-0.075c-0.005-0.002-0.023-0.021-0.023-0.021c-0.048-0.042-0.176-0.166-0.48-0.467
			c-0.102-0.102-0.16-0.181-0.186-0.238c-0.026-0.056-0.026-0.087-0.022-0.103l0.018-0.026c0.066,0.022,0.224,0.076,0.4,0.136
			c0.226,0.08,0.486,0.176,0.583,0.231c0.325,0.231,0.622,0.373,0.893,0.446c0.518,0.139,0.936,0.025,1.247-0.157
			c0.311-0.179,0.517-0.425,0.629-0.547c0.104-0.11,0.169-0.227,0.199-0.34c0.059-0.224-0.02-0.44-0.197-0.532
			c-0.1-0.051-0.275-0.142-0.485-0.198c-0.242-0.065-0.535-0.085-0.799,0.072c-0.191,0.113-0.313,0.115-0.392,0.094
			c-0.049-0.013-0.082-0.035-0.103-0.055l-0.024-0.024c-0.005-0.005-0.358-0.574-0.358-0.574c-0.179-0.106-0.28-0.187-0.333-0.247
			c-0.052-0.06-0.053-0.093-0.051-0.101l0.037-0.035c0.02-0.015,0.056-0.027,0.089-0.036c0.303-0.089,0.462-0.087,0.667-0.033
			c0.235,0.062,0.528,0.202,1.091,0.353c0.093,0.025,0.192,0.05,0.299,0.075c0.416,0.098,0.715,0.033,0.919-0.116
			c0.203-0.148,0.305-0.37,0.357-0.569c0.07-0.263,0.057-0.494,0.056-0.498c-0.001-0.005-0.078-0.892-0.388-1.969
			c-0.086-0.304-0.278-0.471-0.502-0.529c-0.306-0.079-0.659,0.018-0.938,0.13c-0.271,0.11-0.469,0.233-0.489,0.244
			c-0.249,0.127-0.466,0.143-0.644,0.096c-0.209-0.056-0.373-0.2-0.481-0.381c-0.109-0.183-0.159-0.402-0.136-0.591l0.007-0.035
			c0.033-0.129,0.197-0.292,0.296-0.381c0.153-0.136,0.399-0.259,0.367-0.502c-0.019-0.145-0.154-0.256-0.113-0.412
			c0.02-0.075,0.079-0.13,0.177-0.168c0.096-0.039,0.224-0.059,0.342-0.06c0.382-0.01,1.577-0.109,1.58-0.11
			c0.13-0.072,0.191-0.164,0.352-0.24c0.159-0.078,0.419-0.141,0.896-0.113c1.197,0.066,4.362,0.703,4.67,0.761
			c0.091,0.024,0.198,0.115,0.301,0.249c0.154,0.203,0.305,0.49,0.413,0.726c0.054,0.116,0.1,0.222,0.132,0.296
			c0.031,0.075,0.047,0.121,0.047,0.121l0.029,0.072l0.068-0.033c0.005-0.004,0.062-0.018,0.13-0.019
			c0.073-0.001,0.161,0.006,0.251,0.03c0.131,0.035,0.263,0.103,0.363,0.228c0.098,0.122,0.17,0.308,0.167,0.591
			C56.172,13.427,56.152,13.563,56.117,13.697"/>
		<path fill="#9E1E25" d="M60.426,18.181c-0.484,0.082-0.921,0.366-1.087,0.996c-0.084,0.319-0.041,0.621,0.099,0.891
			c0.207,0.406,0.621,0.748,1.144,1.035c0.525,0.283,1.156,0.517,1.808,0.692c0.486,0.13,1.173,0.29,1.957,0.456v-2.619
			c-0.848-0.588-1.71-1.116-2.479-1.324C61.45,18.198,60.912,18.097,60.426,18.181"/>
		<g id="Lion">
			<path fill="#FFFFFF" d="M52.283,39.675c-0.003,0.01-0.003,0.021-0.006,0.031c0.029-0.033,0.059-0.069,0.094-0.106
				c0.148-0.165,0.297-0.28,0.44-0.359c-0.019-0.134-0.016-0.267,0.017-0.404c0.006-0.028,0.017-0.055,0.024-0.083
				C52.493,39.02,52.346,39.408,52.283,39.675"/>
			<path fill="#FFFFFF" d="M60.049,23.573c-2.47-0.257-4.828-0.327-5.561-0.342l-0.023,0.088l-0.605,2.183l-0.346-1.157
				c-0.012,0.043-0.022,0.086-0.033,0.129c-0.245,0.923-0.654,1.65-0.953,2.099c-0.176,0.259-0.329,0.452-0.428,0.568
				c-0.033,0.042-0.062,0.075-0.09,0.105l-0.762,0.834l-0.253-0.898c-0.399,0.895-1.018,1.638-1.82,2.184
				c-0.181,0.121-0.564,0.332-0.958,0.506c-0.031,0.016-0.062,0.029-0.093,0.042c-0.137,0.051-0.245,0.086-0.324,0.11l-1.07,0.311
				l0.434-1.639c-0.25,0.206-0.5,0.369-0.744,0.488c-0.483,0.23-0.944,0.289-1.373,0.174c-0.144-0.039-0.278-0.096-0.398-0.17
				l-0.698-0.445l0.589-0.56c0.048-0.049,0.146-0.144,0.253-0.269c0.243-0.285,0.328-0.478,0.358-0.591
				c0.007-0.028,0.021-0.096,0.001-0.125c-0.038-0.058-0.169-0.144-0.424-0.212c-0.102-0.028-0.216-0.047-0.33-0.066
				c-0.49-0.073-1.481-0.068-3.447,0.362c-1.019,0.224-2.02,0.505-3.017,0.81c-0.634,0.195-1.272,0.359-1.916,0.51
				c-0.93,0.221-1.883,0.366-2.839,0.272c-0.261-0.024-0.522-0.07-0.777-0.139c-0.392-0.105-0.705-0.3-0.86-0.619
				c-0.389-0.133-0.721-0.337-0.996-0.579c-0.312-0.275-0.551-0.593-0.732-0.89c-0.136-0.222-0.236-0.429-0.31-0.609
				c-0.546,0.276-1.086,0.698-1.302,1.334c-0.052,0.153-0.1,0.315-0.144,0.481c-0.022,0.084-0.043,0.167-0.062,0.253
				c0.08,0.023,0.162,0.045,0.24,0.066c1.778,0.476,2.831,0.458,2.882,0.459l0.064,0.006c0.103,0.027,0.177,0.121,0.182,0.231
				l-0.008,0.071c-0.028,0.103-0.117,0.181-0.23,0.185c-0.02,0-1.129,0.032-3.017-0.474c-0.067-0.018-0.136-0.037-0.203-0.055
				c-0.075,0.516-0.078,1.024,0.05,1.404c0.161,0.487,0.529,0.72,0.693,0.763c0,0,0.05,0.007,0.051,0.006
				c1.711-0.624,2.738-0.698,2.767-0.702c0.029,0,0.055,0.001,0.081,0.008c0.1,0.026,0.173,0.115,0.181,0.222
				c0.002,0.027,0,0.054-0.007,0.081c-0.026,0.099-0.115,0.174-0.233,0.184l-0.049,0.004c-0.042,0.005-0.11,0.014-0.196,0.025
				c-0.171,0.027-0.432,0.072-0.766,0.153c-0.214,0.05-0.462,0.116-0.737,0.199c-0.012,0.013-0.024,0.028-0.031,0.054
				c-0.01,0.038-0.012,0.099,0.022,0.196c0.128,0.372,0.244,0.84,0.341,1.108c0.071,0.199,0.236,0.438,0.496,0.507
				c0.243,0.065,0.594-0.005,1.085-0.423c0.299-0.216,0.626-0.377,1.176-0.243l1.32,0.278l0.024,0.003
				c0.014,0.002,0.037,0.005,0.067,0.007c0.059,0.006,0.142,0.009,0.235,0.002c0.189-0.015,0.424-0.071,0.613-0.233
				c0.127-0.106,0.24-0.177,0.359-0.211c0.119-0.036,0.241-0.033,0.369,0.002c0.219,0.061,0.464,0.2,0.826,0.398
				c0.52,0.288,0.932,0.496,1.21,0.57c0.095,0.026,0.171,0.034,0.228,0.026c-0.028-0.049-0.067-0.114-0.113-0.186
				c-0.088-0.149-0.194-0.331-0.258-0.498c-0.041-0.111-0.067-0.216-0.043-0.312c0.012-0.051,0.043-0.098,0.091-0.127
				c0.101-0.06,0.195-0.076,0.274-0.055c0.089,0.024,0.149,0.084,0.193,0.143c0.042,0.055,0.075,0.114,0.095,0.139
				c0.432,0.546,1.384,1.072,2.205,1.29c0.232,0.062,0.453,0.101,0.648,0.109c-0.117-0.12-0.287-0.307-0.381-0.487
				c-0.052-0.099-0.088-0.198-0.063-0.3c0.014-0.057,0.055-0.109,0.112-0.141c0.086-0.043,0.177-0.024,0.279,0.002
				c0.244,0.066,0.544,0.229,0.547,0.23c0,0,0.049,0.025,0.138,0.069c0.086,0.044,0.211,0.106,0.362,0.171
				c0.299,0.136,0.699,0.298,1.092,0.403c0.432,0.118,0.853,0.159,1.123,0.046c-0.311-0.497-0.526-0.873-0.526-0.873
				c-0.007-0.017-0.078-0.12-0.045-0.254c0.015-0.058,0.051-0.115,0.114-0.159c0.074-0.058,0.164-0.058,0.237-0.038
				c0.163,0.046,0.294,0.175,0.312,0.19c0.006,0.005,0.062,0.046,0.163,0.112c0.105,0.069,0.253,0.162,0.435,0.266
				c0.357,0.204,0.837,0.44,1.312,0.567c0.403,0.108,0.797,0.127,1.118,0.006c-0.287-0.219-0.419-0.447-0.424-0.458
				c-0.002-0.006-0.054-0.108-0.022-0.237c0.012-0.043,0.038-0.089,0.074-0.131c0.059-0.061,0.136-0.085,0.206-0.091
				c0.072-0.006,0.139,0.007,0.196,0.022c0.038,0.01,0.072,0.021,0.095,0.031c0.145,0.054,0.282,0.098,0.412,0.133
				c0.772,0.205,1.264,0.103,1.433,0.053l-0.532-1.183c0.106-0.021,0.347-0.077,0.378-0.08c0.104-0.017,0.263-0.075,0.421-0.073
				c0.319,0.006,0.776,0.001,1.334-0.026c1.123-0.053,2.647-0.21,4.277-0.618c3.073-0.77,6.189-1.879,8.996-1.903v-4.503
				C63.096,23.989,61.556,23.731,60.049,23.573"/>
			<path fill="#FFFFFF" d="M62.389,21.795c-0.651-0.175-1.283-0.408-1.807-0.692c-0.524-0.287-0.938-0.629-1.146-1.035
				c-0.14-0.27-0.182-0.572-0.098-0.89c0.165-0.631,0.602-0.915,1.086-0.997c0.486-0.084,1.024,0.017,1.443,0.128
				c0.769,0.207,1.631,0.735,2.478,1.323v-1.845c-0.087-0.02-0.167-0.027-0.258-0.052c-0.106-0.028-0.213-0.061-0.326-0.095
				c-0.242-0.077-0.483-0.148-0.723-0.212c-1.16-0.312-2.265-0.457-3.135-0.29c-0.871,0.169-1.495,0.635-1.747,1.571
				c-0.211,0.802,0.073,1.597,0.801,2.306c0.726,0.708,1.894,1.321,3.417,1.73c0.031,0.008,0.065,0.017,0.095,0.024
				c0.604,0.157,1.236,0.293,1.876,0.419v-0.937C63.563,22.085,62.876,21.926,62.389,21.795"/>
			<path fill="#FFFFFF" d="M57.237,33.861l-0.001,0.002l-0.001,0.148c0.101,0.029,0.2,0.057,0.287,0.081
				c0.071,0.019,0.136,0.035,0.186,0.046h0.002l0.024,0.007c0.045,0.012,0.085,0.029,0.123,0.044
				c-0.031-0.49-0.19-0.822-0.396-1.045c-0.224-0.244-0.506-0.369-0.74-0.431c-0.066-0.018-0.125-0.027-0.18-0.036
				c0.034,0.024,0.069,0.055,0.109,0.086C57.159,33.183,57.238,33.645,57.237,33.861"/>
			<path fill="#FFFFFF" d="M53.817,38.205c-0.089,0.039-0.171,0.087-0.225,0.115c-0.033,0.019-0.083,0.053-0.129,0.089
				c-0.043,0.037-0.083,0.08-0.092,0.101c-0.023,0.041-0.057,0.106-0.079,0.186c-0.026,0.1-0.033,0.226,0.016,0.372
				c0.048,0.144,0.16,0.315,0.385,0.499c0.176,0.142,0.329,0.221,0.467,0.258c0.26,0.069,0.456-0.01,0.612-0.135
				c0.132-0.109,0.226-0.251,0.284-0.352c-0.402-0.338-0.763-0.73-1.011-1.175C53.986,38.149,53.9,38.167,53.817,38.205"/>
			<path fill="#FFFFFF" d="M53.034,34.274c-0.015,0.058-0.016,0.128,0.016,0.22c0.089,0.271,0.068,0.47,0.025,0.63
				c-0.022,0.084-0.05,0.157-0.067,0.218c-0.006,0.025-0.011,0.05-0.014,0.075c-0.007,0.07-0.006,0.094,0.046,0.146
				c0.055,0.054,0.175,0.122,0.394,0.208c0.107,0.041,0.204,0.075,0.289,0.098c0.143,0.038,0.252,0.048,0.337,0.043
				c0.045-0.07,0.087-0.141,0.132-0.209c0.096-0.146,0.194-0.296,0.251-0.418c0.067-0.133,0.105-0.266,0.143-0.397
				c0.026-0.083,0.056-0.169,0.086-0.254c-0.117-0.194-0.306-0.498-0.394-0.614c-0.061-0.078-0.141-0.159-0.259-0.191
				c-0.086-0.023-0.196-0.023-0.345,0.032c-0.147,0.051-0.3,0.104-0.417,0.173C53.136,34.1,53.058,34.177,53.034,34.274"/>
			<path fill="#FFFFFF" d="M53.854,36.309l0.003-0.013c-0.156-0.054-0.363-0.126-0.505-0.164c-0.028-0.007-0.054-0.013-0.074-0.017
				l-0.041-0.01c-0.048-0.012-0.088-0.028-0.124-0.038c-0.068-0.016-0.109-0.019-0.177,0.019c-0.07,0.042-0.163,0.142-0.288,0.349
				c-0.071,0.118-0.176,0.289-0.219,0.452c-0.022,0.08-0.027,0.159-0.009,0.226c0.018,0.069,0.054,0.13,0.134,0.188
				c0.339,0.246,0.597,0.381,0.816,0.439l0.038,0.011c0.054,0.013,0.146,0.02,0.229,0.003c0.074-0.019,0.136-0.054,0.178-0.118
				c-0.082-0.269-0.148-0.673-0.028-1.128C53.804,36.444,53.826,36.374,53.854,36.309"/>
			<path fill="#FFFFFF" d="M55.643,12.467c-0.091-0.024-0.179-0.031-0.251-0.03c-0.068,0.001-0.126,0.016-0.131,0.02l-0.067,0.033
				l-0.029-0.073c0,0-0.017-0.045-0.048-0.121c-0.031-0.074-0.078-0.179-0.132-0.296c-0.107-0.235-0.258-0.523-0.412-0.725
				c-0.103-0.134-0.211-0.226-0.301-0.25c-0.309-0.058-3.474-0.694-4.671-0.761c-0.477-0.028-0.736,0.035-0.896,0.113
				c-0.161,0.077-0.222,0.168-0.352,0.241c-0.003,0-1.198,0.099-1.579,0.109c-0.118,0.002-0.246,0.021-0.343,0.06
				c-0.098,0.039-0.156,0.093-0.176,0.168c-0.042,0.156,0.094,0.267,0.113,0.413C46.4,11.611,46.153,11.733,46,11.87
				c-0.099,0.089-0.264,0.251-0.297,0.38l-0.006,0.035c-0.023,0.189,0.026,0.408,0.136,0.591c0.107,0.181,0.271,0.325,0.48,0.381
				c0.178,0.047,0.395,0.031,0.644-0.096c0.02-0.01,0.219-0.134,0.489-0.244c0.28-0.112,0.632-0.209,0.939-0.13
				c0.223,0.059,0.416,0.225,0.501,0.529c0.31,1.078,0.388,1.965,0.389,1.969c0,0.005,0.013,0.236-0.056,0.499
				c-0.053,0.198-0.155,0.42-0.357,0.568c-0.204,0.149-0.504,0.214-0.919,0.117c-0.107-0.026-0.206-0.051-0.299-0.075
				c-0.563-0.151-0.857-0.292-1.091-0.354c-0.205-0.054-0.364-0.056-0.667,0.033c-0.034,0.01-0.07,0.022-0.089,0.037l-0.037,0.034
				c-0.002,0.009-0.002,0.041,0.05,0.101c0.054,0.06,0.155,0.142,0.333,0.248c0,0,0.354,0.568,0.359,0.573l0.023,0.025
				c0.021,0.019,0.055,0.041,0.103,0.054c0.08,0.022,0.202,0.019,0.392-0.093c0.264-0.158,0.558-0.138,0.799-0.073
				c0.21,0.056,0.386,0.147,0.486,0.199c0.177,0.091,0.255,0.308,0.196,0.531c-0.03,0.113-0.095,0.23-0.198,0.34
				c-0.112,0.122-0.319,0.369-0.63,0.547c-0.31,0.182-0.729,0.296-1.247,0.157c-0.271-0.073-0.567-0.215-0.893-0.446
				c-0.096-0.054-0.357-0.151-0.583-0.23c-0.176-0.061-0.334-0.114-0.4-0.136l-0.017,0.025c-0.005,0.017-0.005,0.047,0.021,0.103
				c0.027,0.057,0.084,0.137,0.186,0.238c0.305,0.301,0.433,0.425,0.48,0.467c0,0,0.019,0.019,0.023,0.021
				c0,0,0.031,0.03,0.061,0.076c0.028,0.043,0.063,0.105,0.045,0.197c-0.018,0.068-0.074,0.124-0.151,0.153
				c-0.078,0.028-0.175,0.028-0.295-0.004c-0.046-0.012-0.094-0.028-0.15-0.052c0,0-0.011-0.006-0.034-0.017
				c-0.024-0.008-0.061-0.023-0.107-0.041c-0.094-0.035-0.229-0.08-0.4-0.126c-0.768-0.206-2.213-0.387-3.523,0.585
				c0.028,0.017,0.062,0.038,0.106,0.063c0.116,0.065,0.275,0.149,0.432,0.231c0.318,0.164,0.636,0.326,0.636,0.326
				c0.014,0.006,0.134,0.056,0.21,0.143c0.027,0.031,0.053,0.07,0.052,0.125c0.001,0.027-0.001,0.057-0.009,0.091
				c-0.013,0.055-0.055,0.112-0.121,0.149c-0.066,0.04-0.159,0.066-0.293,0.085c-0.169,0.022-0.859,0.117-1.618,0.592
				c-0.732,0.461-1.527,1.281-1.985,2.743c0.133-0.062,0.309-0.148,0.527-0.217c0.31-0.098,0.709-0.168,1.191-0.094
				c0.085,0.026,0.145,0.06,0.184,0.11c0.04,0.047,0.048,0.11,0.032,0.159c-0.021,0.079-0.074,0.134-0.121,0.178
				c-0.047,0.04-0.088,0.066-0.093,0.069l-0.036,0.022c-0.022,0.015-0.057,0.038-0.098,0.069c-0.086,0.062-0.201,0.158-0.325,0.287
				c-0.25,0.258-0.535,0.651-0.677,1.189c-0.098,0.37-0.127,0.813-0.033,1.333c0.257-0.078,1.129-0.328,2.168-0.557
				c1.241-0.271,2.712-0.511,3.668-0.37c0.149,0.022,0.284,0.05,0.404,0.082c0.401,0.108,0.65,0.27,0.783,0.469
				c0.137,0.2,0.143,0.428,0.085,0.645c-0.084,0.313-0.298,0.613-0.487,0.839c-0.122,0.141-0.233,0.251-0.29,0.322
				c0.05,0.031,0.125,0.071,0.227,0.098c0.209,0.056,0.52,0.064,0.94-0.136c0.422-0.201,0.949-0.619,1.576-1.421
				c0.037-0.05,0.075-0.085,0.12-0.109c0.043-0.02,0.092-0.027,0.137-0.014c0.075,0.02,0.12,0.083,0.145,0.153
				c0.024,0.071,0.028,0.156,0.006,0.242c-0.109,0.442-0.41,1.583-0.508,1.952c0.069-0.019,0.161-0.05,0.277-0.093
				c0.24-0.091,0.57-0.243,0.921-0.481c0.704-0.477,1.499-1.295,1.866-2.68c0.039-0.145,0.071-0.295,0.099-0.453
				c0.006-0.035,0.012-0.068,0.019-0.097c0.023-0.085,0.058-0.152,0.103-0.199c0.045-0.049,0.114-0.075,0.178-0.057
				c0.063,0.017,0.109,0.067,0.143,0.13c0.034,0.065,0.058,0.15,0.071,0.256c0.026,0.217,0.096,0.519,0.16,0.763
				c0.033,0.125,0.064,0.236,0.085,0.314c0.022-0.025,0.047-0.052,0.077-0.087c0.099-0.117,0.234-0.288,0.382-0.513
				c0.299-0.447,0.652-1.096,0.867-1.906c0.16-0.603,0.244-1.296,0.17-2.063c-0.004-0.043-0.001-0.086,0.009-0.124
				c0.015-0.057,0.046-0.108,0.092-0.144c0.041-0.035,0.104-0.053,0.164-0.036c0.109,0.033,0.187,0.142,0.24,0.335
				c0,0.002,0.178,0.577,0.288,0.951c0.006-0.024,0.013-0.046,0.021-0.074c0.229-0.865,0.566-2.478,0.444-4.098
				c-0.016-0.095-0.013-0.174,0.003-0.238c0.018-0.07,0.056-0.126,0.11-0.159c0.05-0.032,0.112-0.035,0.169-0.02
				c0.027,0.007,0.056,0.019,0.081,0.037c0.074,0.049,0.121,0.131,0.157,0.2c0.033,0.067,0.054,0.123,0.054,0.127
				c0,0,0.138,0.396,0.224,0.639c0.135-0.519,0.347-2.158-0.36-4.189l-0.021-0.054l0.046-0.031c0.445-0.299,1.152-0.911,1.353-1.673
				c0.036-0.133,0.055-0.27,0.056-0.411c0.003-0.283-0.069-0.468-0.168-0.591C55.905,12.57,55.772,12.502,55.643,12.467
				 M49.991,11.658c-0.215,0.105-0.429,0.21-0.429,0.21l-0.051,0.024c0,0-0.034-0.043-0.035-0.045
				c-0.099-0.13-0.22-0.263-0.353-0.363c-0.046-0.033-0.317-0.149-0.159-0.235l0.041-0.022c0.029-0.01,0.063-0.02,0.102-0.028
				c0.082-0.017,0.191-0.03,0.322-0.034c0.141-0.005,1.056-0.007,1.034,0.202C50.447,11.495,50.086,11.611,49.991,11.658"/>
			<path fill="#FFFFFF" d="M31.061,23.903c0.027,0.035,0.056,0.07,0.087,0.11c0.377,0.485,0.379,0.918,0.341,1.15
				c0.03,0.016,0.054,0.033,0.068,0.044l0.037,0.029l0.004,0.008l0.022,0.029v-0.002c0.009,0.015,0.187,0.241,0.371,0.503
				c0.144-0.723-0.057-1.177-0.332-1.47C31.464,24.097,31.231,23.972,31.061,23.903"/>
			<path fill="#FFFFFF" d="M31.409,25.779c-0.081-0.11-0.138-0.185-0.153-0.207l-0.014-0.007c-0.015-0.007-0.038-0.019-0.065-0.026
				c-0.056-0.015-0.135-0.02-0.24,0.016c-0.024,0.007-0.059,0.014-0.119,0.028c-0.058,0.012-0.137,0.031-0.23,0.055
				c-0.174,0.045-0.395,0.111-0.636,0.201c0.022,0.053,0.044,0.107,0.074,0.167c0.17,0.359,0.446,0.81,0.845,1.159
				c0.17,0.15,0.366,0.279,0.583,0.382c0.007-0.095,0.018-0.186,0.041-0.271c0.097-0.353,0.291-0.589,0.308-0.607h0.003l0.005-0.01
				l0.018-0.049c0.016-0.066,0.025-0.188-0.097-0.373C31.626,26.074,31.504,25.908,31.409,25.779"/>
			<path fill="#FFFFFF" d="M32.522,17.199c0.092-0.085,0.155-0.21,0.191-0.346c0.069-0.255,0.048-0.553,0.024-0.682v-0.001
				c-0.024-0.136-0.491-3.117-0.507-4.263c-0.003-0.153,0.038-0.33,0.039-0.404l-0.021-0.051c-0.013-0.014-0.039-0.031-0.077-0.041
				c-0.082-0.023-0.215-0.017-0.35,0.014c-0.828,0.242-1.255,0.808-1.44,1.504c-0.349,1.297,0.191,3.04,0.703,3.745
				c0.398,0.557,0.657,0.785,0.835,0.828c0.113,0.028,0.203,0.003,0.316-0.067C32.312,17.374,32.412,17.292,32.522,17.199"/>
			<path fill="#FFFFFF" d="M62.302,32.425c0.066-0.03,0.138-0.061,0.215-0.092c0.24-0.098,0.51-0.198,0.679-0.201
				c0.056,0,0.107,0.005,0.15,0.017c0.104,0.026,0.171,0.095,0.194,0.175c0.024,0.077,0.014,0.153-0.004,0.221
				c-0.029,0.11-0.08,0.194-0.084,0.202c0,0-0.04,0.059-0.106,0.163c-0.066,0.107-0.154,0.258-0.252,0.437
				c-0.16,0.293-0.339,0.671-0.465,1.053c0.349-0.306,0.67-0.507,0.685-0.515c0.003-0.005,0.029-0.019,0.066-0.036
				c0.041-0.013,0.097-0.03,0.16-0.014c0.043,0.011,0.087,0.043,0.115,0.09c0.02,0.036,0.032,0.078,0.03,0.123
				c0,0.044-0.008,0.094-0.024,0.154c-0.128,0.484-0.36,0.946-0.229,1.462c0.113,0.448,0.169,0.801-0.153,1.185
				c-0.262,0.313-0.725,0.537-1.103,0.669c-0.234,0.08-0.477,0.108-0.795,0.056c-0.272-0.041-0.693-0.183-1.106-0.159
				c-0.508,0.026-0.982,0.301-1.496,0.284c-0.146-0.006-0.3-0.032-0.461-0.075c-0.547-0.147-1.157-0.499-1.436-1.025
				c-0.141-0.27-0.154-0.53-0.093-0.756c0.164-0.599,0.793-0.973,0.845-1.01l0.032-0.035c0.026-0.029,0.05-0.066,0.058-0.095
				l-0.006-0.045c-0.01-0.013-0.039-0.036-0.119-0.058c-0.057-0.013-0.126-0.032-0.203-0.053c-0.459-0.123-1.222-0.348-1.229-0.35
				c-0.012-0.004-0.304-0.076-0.565,0.042L55.57,34.26c-0.025,0.017-0.061,0.042-0.102,0.075c-0.08,0.067-0.181,0.165-0.269,0.289
				c-0.136,0.194-0.158,0.501-0.331,0.867c-0.163,0.338-0.472,0.713-0.576,0.986c-0.019,0.053-0.038,0.103-0.052,0.155
				c-0.107,0.407-0.018,0.771,0.066,0.99c0.305,0.788,1.066,1.44,1.832,1.917c0.764,0.476,1.527,0.781,1.829,0.892
				c0.064,0.022,0.104,0.038,0.124,0.044c0.125,0.001,1.493,0,1.971,0.035c0.45,0.034,1.581,0.194,2.069,0.264
				c0,0-0.608-0.546-0.609-0.547c-0.004-0.004-0.038-0.036-0.072-0.091c-0.031-0.053-0.063-0.132-0.039-0.227
				c0.008-0.033,0.025-0.067,0.05-0.098c0.047-0.058,0.111-0.087,0.172-0.095c0.057-0.008,0.116,0.001,0.162,0.014
				c0.068,0.018,0.117,0.043,0.13,0.05c0.019,0.008,0.186,0.072,0.437,0.156c0.266,0.091,0.624,0.205,0.987,0.303
				c0.278,0.074,0.559,0.137,0.807,0.172c0.07,0.01,0.126,0.007,0.19,0.011v-9.881C63.297,31.114,62.582,32.023,62.302,32.425"/>
			<path fill="#FFFFFF" d="M38.38,24.683l-1.299,0.612l0.417-1.372c0.433-1.383,1.191-2.422,2.253-3.09
				c0.327-0.204,0.676-0.37,1.037-0.487c-0.11-0.059-0.213-0.116-0.296-0.161c-0.055-0.03-0.095-0.054-0.13-0.076l-0.274-0.167
				c-1.755-0.747-4.201-2.268-6.076-5.324c-0.232-0.347-0.405-0.922-0.266-1.457c0.074-0.278,0.236-0.542,0.519-0.75
				c0.281-0.207,0.679-0.354,1.224-0.406l0.003-0.001l0.002,0.001H35.5l0.021-0.002l0.07-0.018c0.051-0.022,0.095-0.049,0.112-0.113
				c0.026-0.083-0.008-0.277-0.263-0.615c-0.322-0.43-0.559-0.734-0.714-0.932c-0.157-0.199-0.231-0.287-0.231-0.287l-0.007-0.007
				l-0.003-0.002l-0.014-0.008c-0.027-0.007-0.107-0.012-0.271,0.081c-0.285,0.157-1.239,0.604-1.454,1.425
				c-0.031,0.116-0.048,0.241-0.045,0.374c0.008,0.831,0.284,2.773,0.422,3.688c0.044,0.296,0.074,0.482,0.075,0.494
				c0.001,0.007,0.088,0.45-0.029,0.893c-0.055,0.21-0.158,0.42-0.34,0.579c-0.241,0.211-0.448,0.365-0.449,0.366l-0.002,0.001
				l-0.003,0.002h-0.001l-0.004,0.004l-0.023,0.016c-0.016,0.015-0.043,0.04-0.072,0.07c-0.056,0.066-0.125,0.164-0.163,0.308
				c-0.037,0.136-0.047,0.313,0.012,0.54c0,0,0.072,0.282,0.159,0.606c0.09,0.327,0.196,0.701,0.261,0.876
				c0.024,0.065,0.051,0.132,0.078,0.184c0.022,0.053,0.049,0.089,0.064,0.099l0.024-0.028c0.026-0.043,0.062-0.129,0.098-0.265
				c0.006-0.023,0.011-0.048,0.018-0.075l0.012-0.045c0.046-0.173,0.126-0.401,0.173-0.545c0.048-0.144,0.192-0.2,0.31-0.169
				c0.095,0.023,0.179,0.116,0.177,0.242c-0.001,0.134-0.021,0.383,0.001,0.637l-0.001,0.001c0,0,0.003,0.026,0.009,0.077
				c0.006,0.05,0.015,0.124,0.03,0.216c0.031,0.184,0.084,0.438,0.175,0.717c0.171,0.531,0.483,1.153,1.018,1.569
				c0.022-0.072,0.044-0.144,0.061-0.211c0.078-0.296,0.12-0.526,0.139-0.598c0.004-0.015,0.009-0.039,0.016-0.065
				c0.009-0.035,0.021-0.076,0.05-0.114c0.027-0.038,0.089-0.071,0.148-0.056l0.001,0.001h0.001l0.009,0.001
				c0.048,0.015,0.079,0.045,0.107,0.078c0.029,0.031,0.051,0.071,0.069,0.106c0.023,0.041,0.039,0.079,0.052,0.109h0.001
				l0.013,0.037c0,0,0.019,0.056,0.054,0.157c0.033,0.099,0.085,0.245,0.154,0.421c0.135,0.353,0.332,0.829,0.579,1.321
				c0.453,0.904,1.085,1.858,1.792,2.224c0.013-0.222,0.044-0.439,0.099-0.647c0.11-0.416,0.303-0.812,0.567-1.157
				C38.543,24.605,38.456,24.646,38.38,24.683"/>
			<path fill="#FFFFFF" d="M36.771,10.862c0.077-0.292,0.016-0.557-0.083-0.767c-0.06-0.126-0.132-0.23-0.191-0.304
				c0,0.061-0.006,0.131-0.011,0.213c-0.008,0.133-0.027,0.252-0.056,0.359c-0.116,0.44-0.366,0.668-0.503,0.766
				c0.093,0.141,0.197,0.336,0.235,0.552C36.53,11.396,36.705,11.117,36.771,10.862"/>
			<path fill="#FFFFFF" d="M29.054,9.028c0.431,0.115,0.658,0.361,0.757,0.5c0.111-0.067,0.232-0.132,0.362-0.187
				c0.06-0.025,0.119-0.043,0.178-0.058c-0.279-0.36-0.553-0.533-0.801-0.6c-0.29-0.078-0.554-0.013-0.762,0.087
				c-0.127,0.059-0.228,0.131-0.303,0.191c0.062,0,0.132,0.004,0.213,0.01C28.83,8.98,28.948,9,29.054,9.028"/>
			<path fill="#FFFFFF" d="M29.447,10.411l-0.001,0.003l-0.002,0.002l-0.008,0.011l-0.03,0.04c-0.026,0.034-0.053,0.087-0.069,0.146
				c-0.027,0.108-0.022,0.239,0.127,0.401c0.188,0.195,0.553,0.594,0.852,0.928c0.213-0.311,0.493-0.561,0.826-0.744l-0.274-1.206
				L30.867,9.99V9.981l-0.005-0.024l-0.032-0.078c-0.033-0.063-0.082-0.122-0.169-0.146c-0.066-0.017-0.163-0.015-0.306,0.047
				c-0.393,0.165-0.71,0.44-0.84,0.565C29.471,10.389,29.447,10.411,29.447,10.411"/>
			<path fill="#FFFFFF" d="M29.39,31.677c-0.033-0.114-0.069-0.227-0.103-0.328c-0.024-0.069-0.037-0.131-0.046-0.191
				c-0.417,0.234-0.608,0.577-0.691,0.891c-0.046,0.173-0.06,0.337-0.06,0.462c0.021-0.04,0.043-0.08,0.069-0.124
				C28.793,31.987,29.124,31.783,29.39,31.677"/>
			<path fill="#FFFFFF" d="M40.235,12.542c0.266,0.375,0.613,0.685,0.986,0.904c0.373,0.222,0.765,0.364,1.153,0.464
				c0.775,0.197,1.535,0.249,2.279,0.315c0.746,0.068,1.481,0.131,2.187,0.329c0.702,0.192,1.378,0.548,1.854,1.152
				c-0.395-0.664-1.056-1.132-1.761-1.425c-0.708-0.3-1.457-0.463-2.188-0.625c-0.733-0.162-1.461-0.313-2.111-0.57
				c-0.653-0.255-1.191-0.65-1.47-1.19l-0.04-0.068c-0.18-0.252-0.527-0.306-0.775-0.115c-0.251,0.192-0.307,0.555-0.126,0.809
				L40.235,12.542z"/>
			<path fill="#FFFFFF" d="M32.966,8.716c0.038,0.006,0.077,0.011,0.112,0.02c0.201,0.054,0.334,0.155,0.423,0.259
				c0.081-0.522-0.025-0.863-0.194-1.095c-0.186-0.252-0.463-0.374-0.68-0.432c-0.053-0.014-0.099-0.023-0.143-0.032
				c0.041,0.05,0.085,0.102,0.135,0.169C32.974,8.064,32.996,8.478,32.966,8.716"/>
			<path fill="#FFFFFF" d="M31.614,10.995c0.028-0.008,0.053-0.018,0.083-0.026c0,0,0.013-0.005,0.014-0.004
				c0.197-0.049,0.38-0.054,0.54-0.011c0.082,0.022,0.155,0.06,0.218,0.105c0.091-0.124,0.211-0.293,0.326-0.466
				c0.133-0.199,0.258-0.399,0.301-0.51c0.028-0.076,0.065-0.17,0.091-0.27c0.036-0.134,0.054-0.276,0.024-0.385
				c-0.032-0.107-0.092-0.186-0.254-0.233c-0.063-0.016-0.145-0.027-0.243-0.025c-0.303,0.001-0.704-0.012-0.949,0.2
				c-0.152,0.13-0.179,0.329-0.201,0.516c0.003,0.178,0.003,0.359,0.013,0.539C31.58,10.472,31.628,10.99,31.614,10.995"/>
			<path fill="#FFFFFF" d="M30.042,12.45c0.026-0.063-0.355-0.338-0.408-0.368c-0.157-0.087-0.364-0.126-0.523-0.018
				c-0.175,0.119-0.503,0.421-0.58,0.727c-0.031,0.115-0.029,0.225,0.022,0.336c0.048,0.11,0.149,0.225,0.33,0.334
				c0.329,0.199,0.65,0.399,0.924,0.572c-0.017-0.422,0.014-0.841,0.117-1.231c0.019-0.073,0.043-0.143,0.066-0.213
				C30.007,12.539,30.025,12.496,30.042,12.45"/>
			<path fill="#FFFFFF" d="M52.1,36.455c0.044-0.092,0.088-0.171,0.119-0.22l0.021-0.038l0.001-0.002
				c0.041-0.067,0.087-0.131,0.13-0.194c-0.38-0.007-0.679,0.129-0.899,0.305c-0.145,0.115-0.253,0.241-0.332,0.346
				c0.04-0.017,0.082-0.038,0.128-0.059C51.6,36.449,51.88,36.429,52.1,36.455"/>
			<path fill="#FFFFFF" d="M27.619,25.755c-0.138,0.064-0.253,0.141-0.341,0.207c0.044-0.007,0.089-0.013,0.139-0.02
				c0.232-0.028,0.44-0.007,0.62,0.043c0.171,0.046,0.31,0.115,0.431,0.185c0.133-0.122,0.291-0.24,0.47-0.355
				c-0.123-0.068-0.244-0.123-0.36-0.154C28.204,25.563,27.875,25.638,27.619,25.755"/>
			<path fill="#FFFFFF" d="M26.33,29.804c-0.004,0.016-0.007,0.03-0.011,0.046c0.028-0.032,0.06-0.068,0.093-0.105
				c0.319-0.337,0.689-0.46,0.971-0.5c0.001-0.189,0.014-0.372,0.036-0.554c-0.349,0.085-0.593,0.256-0.759,0.455
				C26.476,29.365,26.38,29.613,26.33,29.804"/>
			<path fill="#FFFFFF" d="M52.344,33.508c0.215,0.058,0.381,0.146,0.511,0.24c0.138-0.111,0.295-0.192,0.434-0.249
				c-0.099-0.055-0.199-0.101-0.3-0.128c-0.389-0.106-0.757-0.011-0.983,0.076c0.044,0.006,0.088,0.012,0.139,0.019
				C52.215,33.477,52.282,33.491,52.344,33.508"/>
			<path fill="#FFFFFF" d="M28.063,11.917c0.155,0.041,0.271,0.103,0.349,0.153c0.191-0.224,0.391-0.368,0.434-0.398
				c0.003-0.002,0.005-0.003,0.009-0.007c-0.197-0.121-0.374-0.2-0.537-0.244c-0.435-0.116-0.75,0.011-0.979,0.19
				c-0.162,0.128-0.276,0.284-0.345,0.398c0.056-0.021,0.124-0.041,0.204-0.065C27.554,11.84,27.846,11.86,28.063,11.917"/>
			<polygon fill="#FFFFFF" points="64.347,46.19 13.142,32.466 13.419,31.416 64.346,45.066 			"/>
		</g>
		<g id="Rose">
			<path fill="#FFFFFF" d="M31.261,54.51c-0.025,0.029-0.047,0.059-0.073,0.086C31.214,54.568,31.236,54.539,31.261,54.51"/>
			<path fill="#FFFFFF" d="M30.698,54.978c-0.095,0.054-0.191,0.109-0.294,0.149c-0.162,0.062-0.33,0.085-0.498,0.107
				c0.116-0.015,0.232-0.02,0.345-0.055c0.078,0.183,0.143,0.364,0.201,0.54h0.51c-0.105-0.222-0.209-0.458-0.297-0.715
				C30.677,54.997,30.686,54.985,30.698,54.978"/>
			<path fill="#FFFFFF" d="M33.196,49.652c-0.052-0.119-0.121-0.226-0.193-0.333C33.075,49.425,33.144,49.533,33.196,49.652"/>
			<path fill="#FFFFFF" d="M31.765,52.665c0.083,0.435,0.03,0.886-0.15,1.303C31.798,53.552,31.848,53.1,31.765,52.665"/>
			<path fill="#FFFFFF" d="M30.68,46.532c0.023,0.019,0.045,0.037,0.067,0.057C30.726,46.569,30.704,46.551,30.68,46.532"/>
			<path fill="#FFFFFF" d="M32.377,48.684c-0.184-0.117-0.384-0.211-0.603-0.27C31.992,48.473,32.193,48.567,32.377,48.684"/>
			<path fill="#FFFFFF" d="M31.175,47.11c-0.015-0.025-0.028-0.049-0.043-0.073C31.147,47.061,31.161,47.086,31.175,47.11"/>
			<path fill="#FFFFFF" d="M31.424,47.724c-0.005-0.021-0.007-0.043-0.013-0.064C31.417,47.681,31.419,47.703,31.424,47.724"/>
			<path fill="#FFFFFF" d="M32.539,48.818c0.114,0.089,0.227,0.181,0.321,0.291C32.766,48.999,32.654,48.908,32.539,48.818"/>
			<path fill="#FFFFFF" d="M27.784,54.262c0.073,0.114,0.156,0.221,0.248,0.319C27.939,54.482,27.856,54.376,27.784,54.262
				L27.784,54.262z"/>
			<path fill="#FFFFFF" d="M29.058,55.2c-0.132-0.035-0.26-0.083-0.381-0.142C28.797,55.117,28.926,55.165,29.058,55.2"/>
			<path fill="#FFFFFF" d="M26.124,54.44c-0.19-0.056-0.37-0.135-0.535-0.238C25.754,54.306,25.934,54.385,26.124,54.44"/>
			<path fill="#FFFFFF" d="M29.7,55.267c-0.214,0.008-0.43-0.011-0.642-0.068C29.27,55.256,29.486,55.275,29.7,55.267"/>
			<path fill="#FFFFFF" d="M31.765,52.665c0.118-0.031,0.233-0.073,0.342-0.123C31.997,52.592,31.884,52.634,31.765,52.665"/>
			<path fill="#FFFFFF" d="M33.208,51.409c0.023-0.054,0.047-0.108,0.066-0.164C33.255,51.301,33.231,51.355,33.208,51.409"/>
			<path fill="#FFFFFF" d="M33.324,51.065c0.014-0.058,0.027-0.115,0.037-0.174C33.351,50.95,33.338,51.008,33.324,51.065"/>
			<path fill="#FFFFFF" d="M32.247,52.464c0.058-0.032,0.118-0.062,0.173-0.099C32.365,52.402,32.305,52.433,32.247,52.464"/>
			<path fill="#FFFFFF" d="M33.039,51.726c0.031-0.049,0.064-0.097,0.091-0.149C33.103,51.628,33.07,51.676,33.039,51.726"/>
			<path fill="#FFFFFF" d="M32.822,52.01c0.039-0.043,0.079-0.085,0.115-0.132C32.901,51.923,32.861,51.967,32.822,52.01"/>
			<path fill="#FFFFFF" d="M32.698,52.143c-0.043,0.041-0.092,0.076-0.138,0.114C32.606,52.219,32.654,52.184,32.698,52.143"/>
			<path fill="#FFFFFF" d="M24.499,48.575c-0.031,0.082-0.051,0.166-0.072,0.25C24.448,48.741,24.468,48.657,24.499,48.575"/>
			<path fill="#FFFFFF" d="M24.39,48.972c-0.017,0.098-0.022,0.198-0.025,0.298C24.368,49.17,24.373,49.07,24.39,48.972"/>
			<path fill="#FFFFFF" d="M26.448,47.151c0.216-0.009,0.437,0.009,0.655,0.068c0.078,0.021,0.155,0.045,0.231,0.076
				c-0.076-0.031-0.153-0.057-0.231-0.078C26.885,47.159,26.665,47.142,26.448,47.151"/>
			<path fill="#FFFFFF" d="M29.139,46.048c0.081-0.006,0.163-0.011,0.245-0.008C29.302,46.037,29.221,46.042,29.139,46.048"/>
			<path fill="#FFFFFF" d="M24.718,51.509c-0.006,0.016-0.015,0.03-0.021,0.046C24.703,51.539,24.712,51.525,24.718,51.509"/>
			<path fill="#FFFFFF" d="M24.559,52.235c0.001-0.029,0.005-0.057,0.008-0.086C24.564,52.178,24.56,52.206,24.559,52.235"/>
			<path fill="#FFFFFF" d="M24.612,52.823c0.007,0.033,0.015,0.064,0.024,0.096C24.626,52.887,24.619,52.855,24.612,52.823"/>
			<path fill="#FFFFFF" d="M37.925,55.091c-0.07-0.25,0.072-0.755,0.164-1.089c0.038-0.137,0.073-0.266,0.102-0.39
				c0.183-0.818,0.152-1.458-0.007-1.96c0.04,0.017,0.083,0.031,0.128,0.043c0.406,0.109,0.84-0.034,1.104-0.364l0.591-0.744
				c0.179-0.223,0.259-0.503,0.227-0.788c-0.032-0.283-0.17-0.538-0.39-0.718l-0.738-0.595c-0.115-0.094-0.248-0.16-0.392-0.199
				c-0.23-0.061-0.469-0.042-0.68,0.046c0.056-0.51-0.021-1.082-0.235-1.713c-0.041-0.122-0.093-0.246-0.143-0.377
				c-0.128-0.322-0.319-0.808-0.279-1.067c0.018-0.108,0.068-0.245,0.119-0.376c0.119-0.315,0.32-0.84-0.053-1.304L37.35,43.57
				l-0.002-0.002l0.093-0.076c-0.13-0.159-0.306-0.272-0.509-0.327c-0.264-0.07-0.51-0.031-0.749,0.008
				c-0.136,0.022-0.281,0.045-0.391,0.04c-0.032-0.002-0.069-0.008-0.109-0.019c-0.266-0.071-0.599-0.295-0.869-0.475
				c-0.117-0.079-0.228-0.153-0.338-0.218c-0.386-0.232-0.763-0.398-1.117-0.493c-0.211-0.056-0.463-0.099-0.74-0.099
				c0.116-0.136,0.197-0.299,0.232-0.48c0.059-0.28,0.006-0.566-0.151-0.804l-0.517-0.796c-0.144-0.221-0.364-0.379-0.616-0.447
				c-0.293-0.079-0.606-0.027-0.857,0.138l-0.792,0.523c-0.335,0.221-0.506,0.604-0.476,0.98c-0.169-0.077-0.331-0.133-0.477-0.172
				c-0.355-0.095-0.762-0.139-1.214-0.132c-0.127,0.002-0.26,0.012-0.401,0.021c-0.322,0.022-0.722,0.049-0.987-0.022
				c-0.042-0.012-0.077-0.024-0.104-0.039c-0.099-0.052-0.211-0.142-0.321-0.231c-0.187-0.152-0.381-0.311-0.643-0.381
				c-0.205-0.055-0.415-0.045-0.605,0.029l0.001,0.001l-0.005-0.001c-0.552,0.217-0.64,0.774-0.691,1.107
				c-0.02,0.138-0.042,0.282-0.082,0.388c-0.093,0.242-0.501,0.568-0.769,0.782c-0.111,0.088-0.217,0.173-0.312,0.256
				c-0.576,0.51-0.956,1.046-1.135,1.597c-0.141-0.232-0.367-0.404-0.634-0.476c-0.18-0.048-0.371-0.048-0.553,0.001l-0.911,0.252
				c-0.274,0.075-0.502,0.252-0.644,0.501c-0.141,0.248-0.177,0.538-0.104,0.814l0.249,0.919c0.099,0.365,0.388,0.654,0.753,0.751
				l0.022,0.006c-0.319,0.351-0.599,0.844-0.807,1.527c-0.038,0.12-0.07,0.251-0.105,0.389c-0.084,0.336-0.212,0.843-0.394,1.028
				c-0.08,0.079-0.201,0.157-0.318,0.233c-0.28,0.185-0.749,0.492-0.719,1.088v0.004v0.002c0.033,0.594,0.531,0.849,0.831,1
				c0.124,0.065,0.253,0.13,0.34,0.2c0.201,0.163,0.382,0.654,0.501,0.978c0.05,0.133,0.096,0.261,0.146,0.376
				c0.304,0.713,0.689,1.24,1.156,1.58c-0.207,0.051-0.387,0.167-0.528,0.321h3.447c0.126-0.207,0.276-0.417,0.477-0.638
				c0.277-0.303,0.711-0.791,1.261-1.217c0.076,0.079,0.168,0.135,0.253,0.201c-0.134-0.104-0.269-0.208-0.378-0.344
				c-0.064-0.078-0.115-0.162-0.166-0.246c0.007,0.011,0.008,0.024,0.015,0.035c-0.536,0.465-1.106,0.798-1.461,1.012
				c-1.654,0.986-2.679,0.469-3.319-1.031c-0.192-0.449-0.404-1.281-0.887-1.672c-0.365-0.295-0.855-0.396-0.866-0.603v-0.001
				c-0.01-0.205,0.466-0.361,0.795-0.692c0.441-0.441,0.563-1.292,0.707-1.762c0.477-1.56,1.439-2.184,3.189-1.384
				c0.384,0.178,1.005,0.456,1.6,0.875c-0.032,0.056-0.053,0.115-0.079,0.173c0.043-0.094,0.085-0.188,0.143-0.276
				c0.1-0.156,0.229-0.281,0.359-0.404c-0.051,0.049-0.111,0.084-0.158,0.137c-0.641-0.378-1.159-0.847-1.484-1.135
				c-1.442-1.277-1.271-2.417-0.051-3.496c0.366-0.322,1.087-0.783,1.307-1.369c0.165-0.437,0.111-0.938,0.302-1.013
				c0.192-0.074,0.485,0.334,0.899,0.547c0.554,0.285,1.396,0.139,1.88,0.13c1.623-0.025,2.51,0.704,2.293,2.626
				c-0.05,0.443-0.125,1.165-0.361,1.895c-0.048-0.009-0.097-0.008-0.146-0.013c0.107,0.012,0.215,0.025,0.321,0.053
				c0.103,0.028,0.199,0.067,0.293,0.107c-0.009-0.004-0.016-0.012-0.026-0.016c0.157-0.764,0.455-1.441,0.633-1.856
				c0.762-1.776,1.892-1.964,3.287-1.13c0.416,0.25,1.076,0.798,1.695,0.828c0.465,0.023,0.921-0.184,1.05-0.025l0.001,0.001
				c0.129,0.161-0.167,0.567-0.24,1.031c-0.098,0.618,0.3,1.379,0.455,1.841c0.526,1.545,0.111,2.621-1.77,3.007
				c-0.431,0.089-1.132,0.24-1.892,0.241c-0.013-0.076-0.05-0.143-0.071-0.216c0.047,0.162,0.097,0.324,0.106,0.499
				c0.005,0.095-0.003,0.186-0.009,0.278c0.002-0.034,0.01-0.066,0.011-0.1c0.758-0.082,1.473-0.008,1.913,0.035
				c1.913,0.179,2.44,1.204,2.082,2.796c-0.107,0.477-0.421,1.277-0.259,1.88c0.04,0.148,0.102,0.283,0.165,0.411h0.914
				c-0.041-0.1-0.086-0.19-0.125-0.266C38.018,55.329,37.953,55.2,37.925,55.091 M21.361,46.084l-1.171,0.104
				c-0.127,0.035-0.26-0.043-0.294-0.17L19.648,45.1c-0.037-0.13,0.039-0.263,0.168-0.299l0.911-0.25
				c0.127-0.035,0.261,0.042,0.295,0.17l0.507,1.067C21.563,45.916,21.486,46.049,21.361,46.084 M31.944,41.415l-0.853,0.814
				c-0.11,0.073-0.26,0.041-0.333-0.069l-0.456-1.089c-0.074-0.111-0.042-0.261,0.068-0.335l0.791-0.522
				c0.11-0.074,0.259-0.042,0.333,0.069l0.519,0.797C32.084,41.19,32.054,41.341,31.944,41.415 M37.404,50.286
				c-0.103-0.083-0.12-0.236-0.038-0.34l0.886-0.776c0.084-0.103,0.236-0.121,0.338-0.036l0.739,0.596
				c0.1,0.082,0.118,0.234,0.036,0.338l-0.592,0.744c-0.083,0.103-0.235,0.121-0.337,0.037L37.404,50.286z"/>
			<path fill="#FFFFFF" d="M24.396,49.723c-0.02-0.113-0.036-0.226-0.038-0.339C24.36,49.497,24.376,49.61,24.396,49.723"/>
			<path fill="#FFFFFF" d="M25.609,47.376c-0.12,0.058-0.235,0.12-0.344,0.2C25.373,47.497,25.49,47.434,25.609,47.376"/>
			<path fill="#FFFFFF" d="M27.334,47.295c0.186-0.402,0.49-0.737,0.881-0.965C27.824,46.559,27.519,46.892,27.334,47.295"/>
			<path fill="#FFFFFF" d="M28.588,46.159c-0.128,0.045-0.253,0.101-0.373,0.172C28.335,46.261,28.46,46.204,28.588,46.159"/>
			<path fill="#FFFFFF" d="M26.259,47.182c-0.148,0.02-0.294,0.045-0.434,0.095C25.965,47.227,26.111,47.202,26.259,47.182"/>
			<path fill="#FFFFFF" d="M28.98,46.062c-0.089,0.014-0.175,0.037-0.262,0.062C28.804,46.099,28.891,46.076,28.98,46.062"/>
			<path fill="#FFFFFF" d="M26.124,54.441c0.016,0.004,0.029,0.014,0.045,0.019c0.546,0.146,1.125,0.071,1.614-0.198h0.001
				c0.073,0.114,0.156,0.221,0.248,0.319c0.184,0.196,0.402,0.359,0.645,0.476c0.121,0.059,0.249,0.107,0.381,0.143
				c0.212,0.057,0.428,0.075,0.642,0.067c0.07-0.002,0.138-0.023,0.207-0.032c0.168-0.023,0.336-0.046,0.497-0.108
				c0.104-0.04,0.2-0.094,0.295-0.149c0.182-0.103,0.346-0.232,0.489-0.382c0.026-0.028,0.049-0.058,0.074-0.086
				c0.139-0.163,0.264-0.341,0.353-0.543c0.181-0.416,0.234-0.867,0.151-1.302c0.118-0.032,0.232-0.074,0.342-0.123
				c0.048-0.023,0.093-0.052,0.139-0.077c0.059-0.032,0.119-0.062,0.173-0.099c0.05-0.033,0.094-0.073,0.141-0.11
				c0.046-0.037,0.094-0.072,0.138-0.113c0.044-0.042,0.083-0.088,0.124-0.133c0.039-0.044,0.079-0.086,0.114-0.132
				c0.038-0.049,0.07-0.101,0.103-0.152c0.031-0.049,0.063-0.098,0.091-0.149c0.029-0.054,0.053-0.111,0.077-0.168
				c0.024-0.054,0.047-0.107,0.066-0.163c0.02-0.059,0.035-0.12,0.05-0.181c0.014-0.058,0.028-0.115,0.037-0.174
				c0.011-0.064,0.017-0.128,0.021-0.193c0.007-0.092,0.015-0.183,0.01-0.278c-0.009-0.174-0.059-0.337-0.107-0.499
				c-0.026-0.091-0.051-0.183-0.089-0.269c-0.052-0.119-0.121-0.227-0.192-0.334c-0.048-0.07-0.089-0.145-0.144-0.209
				c-0.094-0.11-0.206-0.202-0.321-0.291c-0.055-0.043-0.102-0.096-0.161-0.134c-0.184-0.116-0.385-0.211-0.604-0.27
				c-0.093-0.025-0.189-0.043-0.287-0.055c0.013-0.217-0.013-0.43-0.063-0.635c-0.005-0.021-0.007-0.043-0.013-0.064
				c-0.053-0.194-0.135-0.378-0.236-0.55c-0.015-0.024-0.028-0.049-0.043-0.073c-0.107-0.165-0.237-0.316-0.385-0.448
				c-0.022-0.019-0.044-0.038-0.067-0.057c-0.155-0.127-0.327-0.235-0.517-0.317c-0.095-0.04-0.191-0.079-0.293-0.107
				c-0.107-0.028-0.214-0.041-0.322-0.053c-0.055-0.006-0.11-0.013-0.164-0.015c-0.083-0.003-0.164,0.002-0.246,0.008
				c-0.053,0.004-0.106,0.006-0.159,0.014c-0.088,0.013-0.175,0.037-0.262,0.062c-0.043,0.012-0.087,0.02-0.129,0.035
				c-0.128,0.045-0.253,0.101-0.373,0.171c-0.391,0.228-0.695,0.563-0.881,0.965c-0.077-0.03-0.154-0.055-0.232-0.076
				c-0.218-0.059-0.438-0.077-0.655-0.068c-0.064,0.003-0.125,0.022-0.189,0.031c-0.148,0.019-0.294,0.045-0.434,0.094
				c-0.075,0.027-0.144,0.066-0.215,0.1c-0.12,0.058-0.236,0.121-0.344,0.2c-0.07,0.052-0.133,0.111-0.197,0.171
				c-0.13,0.122-0.26,0.247-0.36,0.403c-0.057,0.088-0.099,0.182-0.142,0.276c-0.023,0.05-0.049,0.098-0.068,0.149
				c-0.03,0.081-0.051,0.165-0.071,0.249c-0.013,0.05-0.029,0.098-0.037,0.148c-0.017,0.098-0.022,0.198-0.025,0.298
				c-0.001,0.038-0.008,0.076-0.007,0.114c0.002,0.113,0.018,0.226,0.037,0.339c0.005,0.026,0.004,0.053,0.01,0.079
				c0.093,0.444,0.316,0.84,0.639,1.143c-0.14,0.172-0.246,0.364-0.327,0.564c-0.006,0.016-0.015,0.031-0.02,0.046
				c-0.073,0.192-0.113,0.392-0.131,0.594c-0.002,0.029-0.006,0.057-0.007,0.086c-0.01,0.197,0.009,0.394,0.052,0.588
				c0.007,0.032,0.015,0.065,0.024,0.097c0.052,0.192,0.13,0.379,0.237,0.556c0.051,0.084,0.102,0.168,0.165,0.246
				c0.109,0.136,0.244,0.24,0.379,0.344c0.058,0.045,0.11,0.098,0.171,0.136C25.753,54.305,25.934,54.385,26.124,54.441 M25.4,48.6
				c0.407-0.634,1.247-0.817,1.879-0.406c0.094,0.062,0.181,0.135,0.255,0.216v-0.001c0.087,0.086,0.228,0.096,0.324,0.015
				c0.057-0.045,0.085-0.114,0.09-0.182c0-0.119,0.014-0.241,0.046-0.363c0.194-0.73,0.937-1.166,1.664-0.971
				c0.726,0.195,1.155,0.945,0.962,1.675c-0.03,0.112-0.07,0.215-0.123,0.311c-0.055,0.11-0.021,0.248,0.085,0.316
				c0.06,0.04,0.134,0.047,0.197,0.029h0.003c0.113-0.036,0.231-0.061,0.357-0.067c0.749-0.04,1.39,0.539,1.429,1.293
				c0.04,0.754-0.534,1.4-1.284,1.441c-0.114,0.006-0.225-0.003-0.331-0.024h-0.001c-0.121-0.016-0.239,0.058-0.271,0.18
				c-0.019,0.072-0.004,0.144,0.034,0.199l-0.002,0.001c0.071,0.097,0.128,0.204,0.176,0.322c0.269,0.704-0.081,1.497-0.781,1.768
				c-0.701,0.272-1.486-0.079-1.758-0.785c-0.039-0.106-0.067-0.215-0.079-0.323l-0.001-0.001c-0.021-0.122-0.127-0.211-0.252-0.204
				c-0.075,0.004-0.138,0.041-0.178,0.094l-0.001-0.001c-0.071,0.098-0.153,0.188-0.251,0.267c-0.582,0.476-1.438,0.387-1.911-0.199
				c-0.474-0.587-0.383-1.448,0.199-1.926c0.088-0.072,0.184-0.13,0.28-0.178c0.111-0.058,0.162-0.187,0.116-0.306
				c-0.026-0.069-0.081-0.118-0.144-0.141c0-0.001-0.001-0.001,0-0.003c-0.111-0.034-0.223-0.085-0.328-0.155
				C25.171,50.081,24.993,49.234,25.4,48.6"/>
			<circle fill="#FFFFFF" cx="28.656" cy="50.706" r="1.322"/>
		</g>
		<g id="Rose_Red">
			<path fill="#9E1E25" d="M30.251,55.18c-0.113,0.034-0.229,0.039-0.345,0.055c-0.069,0.009-0.137,0.03-0.207,0.033
				c-0.214,0.008-0.429-0.011-0.642-0.068c-0.132-0.035-0.26-0.083-0.381-0.142c-0.243-0.118-0.462-0.28-0.645-0.477
				c-0.092-0.098-0.175-0.204-0.248-0.318c-0.49,0.268-1.069,0.345-1.614,0.198c-0.017-0.004-0.03-0.015-0.046-0.02
				c-0.19-0.056-0.369-0.135-0.535-0.238c-0.063-0.039-0.114-0.092-0.172-0.137c-0.085-0.066-0.178-0.122-0.253-0.2
				c-0.55,0.426-0.984,0.913-1.262,1.217c-0.2,0.22-0.35,0.431-0.476,0.637h7.027C30.395,55.542,30.33,55.361,30.251,55.18"/>
			<path fill="#9E1E25" d="M25.266,47.576c0.108-0.08,0.223-0.142,0.344-0.2c0.072-0.035,0.139-0.074,0.215-0.1
				c0.14-0.05,0.286-0.075,0.434-0.095c0.064-0.008,0.124-0.027,0.189-0.03c0.217-0.009,0.437,0.008,0.655,0.066
				c0.078,0.021,0.155,0.047,0.232,0.078c0.185-0.404,0.49-0.737,0.881-0.965c0.12-0.07,0.245-0.126,0.373-0.172
				c0.042-0.015,0.086-0.022,0.129-0.034c0.087-0.025,0.174-0.049,0.262-0.063c0.053-0.008,0.106-0.009,0.159-0.013
				c0.082-0.007,0.163-0.012,0.245-0.009c0.056,0.002,0.11,0.009,0.165,0.016c0.049,0.005,0.098,0.004,0.147,0.013
				c0.235-0.73,0.31-1.452,0.361-1.895c0.216-1.922-0.671-2.652-2.293-2.626c-0.485,0.009-1.326,0.155-1.881-0.13
				c-0.413-0.213-0.706-0.621-0.898-0.547c-0.191,0.075-0.137,0.576-0.303,1.013c-0.22,0.585-0.94,1.047-1.307,1.369
				c-1.219,1.078-1.39,2.218,0.052,3.496c0.324,0.288,0.843,0.757,1.483,1.135c0.047-0.053,0.108-0.089,0.159-0.137
				C25.133,47.687,25.196,47.628,25.266,47.576"/>
			<path fill="#9E1E25" d="M24.612,52.823c-0.043-0.194-0.062-0.391-0.053-0.588c0.002-0.029,0.006-0.057,0.008-0.086
				c0.018-0.202,0.058-0.402,0.13-0.594c0.006-0.016,0.015-0.03,0.021-0.046c0.081-0.2,0.186-0.392,0.326-0.565
				c-0.322-0.302-0.545-0.698-0.639-1.14c-0.005-0.027-0.004-0.054-0.009-0.081c-0.02-0.113-0.035-0.226-0.038-0.339
				c0-0.038,0.006-0.076,0.008-0.114c0.003-0.1,0.008-0.2,0.024-0.298c0.009-0.05,0.025-0.098,0.037-0.148
				c0.021-0.084,0.041-0.168,0.072-0.249c0.019-0.051,0.045-0.099,0.067-0.149c0.027-0.058,0.048-0.117,0.079-0.173
				c-0.594-0.419-1.215-0.697-1.599-0.875c-1.75-0.8-2.712-0.176-3.19,1.384c-0.143,0.47-0.266,1.321-0.706,1.762
				c-0.33,0.331-0.806,0.487-0.795,0.692v0.001c0.01,0.207,0.501,0.308,0.865,0.603c0.483,0.391,0.695,1.223,0.887,1.672
				c0.64,1.5,1.665,2.017,3.319,1.031c0.356-0.214,0.926-0.547,1.462-1.012c-0.007-0.011-0.008-0.024-0.015-0.035
				c-0.107-0.177-0.185-0.364-0.237-0.557C24.626,52.887,24.619,52.856,24.612,52.823"/>
			<path fill="#9E1E25" d="M30.748,46.589c0.148,0.132,0.277,0.282,0.384,0.448c0.016,0.024,0.029,0.048,0.044,0.073
				c0.101,0.172,0.183,0.355,0.236,0.55c0.005,0.021,0.008,0.042,0.013,0.064c0.049,0.205,0.075,0.418,0.062,0.635
				c0.098,0.012,0.193,0.03,0.287,0.055c0.219,0.059,0.42,0.153,0.603,0.27c0.06,0.038,0.107,0.09,0.162,0.134
				c0.115,0.09,0.227,0.18,0.321,0.291c0.056,0.064,0.096,0.138,0.144,0.209c0.071,0.108,0.14,0.214,0.192,0.334
				c0.038,0.086,0.062,0.177,0.089,0.269c0.022,0.073,0.058,0.14,0.072,0.216c0.759-0.001,1.46-0.152,1.891-0.241
				c1.881-0.387,2.297-1.462,1.771-3.007c-0.156-0.462-0.554-1.223-0.455-1.842c0.073-0.463,0.368-0.87,0.24-1.03l-0.001-0.001
				c-0.129-0.159-0.585,0.048-1.051,0.025c-0.619-0.03-1.278-0.578-1.695-0.828c-1.395-0.834-2.525-0.646-3.286,1.13
				c-0.178,0.415-0.476,1.092-0.633,1.856c0.009,0.004,0.016,0.012,0.026,0.016c0.19,0.082,0.362,0.19,0.517,0.317
				C30.704,46.551,30.726,46.569,30.748,46.589"/>
			<path fill="#9E1E25" d="M33.324,51.065c-0.015,0.061-0.03,0.122-0.05,0.181c-0.019,0.056-0.043,0.109-0.066,0.164
				c-0.025,0.056-0.048,0.113-0.078,0.167c-0.027,0.051-0.059,0.1-0.091,0.149c-0.033,0.051-0.065,0.103-0.102,0.152
				c-0.035,0.046-0.076,0.088-0.115,0.132c-0.04,0.045-0.079,0.091-0.123,0.133c-0.044,0.041-0.092,0.076-0.139,0.113
				c-0.046,0.037-0.09,0.077-0.14,0.11c-0.055,0.037-0.115,0.067-0.173,0.099c-0.047,0.025-0.091,0.055-0.14,0.077
				c-0.109,0.05-0.223,0.091-0.342,0.123c0.084,0.435,0.033,0.887-0.15,1.302c-0.089,0.202-0.214,0.38-0.354,0.543
				c-0.025,0.029-0.047,0.058-0.073,0.086c-0.144,0.15-0.308,0.278-0.49,0.382c-0.012,0.007-0.02,0.02-0.033,0.026
				c0.089,0.257,0.192,0.493,0.297,0.716h6.332c-0.063-0.127-0.125-0.262-0.165-0.411c-0.161-0.603,0.152-1.403,0.259-1.88
				c0.358-1.592-0.169-2.617-2.082-2.796c-0.439-0.042-1.155-0.117-1.913-0.035c-0.001,0.034-0.009,0.066-0.011,0.1
				c-0.005,0.065-0.011,0.129-0.021,0.193C33.351,50.95,33.338,51.007,33.324,51.065"/>
			<path fill="#9E1E25" d="M38.773,50.812l0.591-0.744c0.083-0.104,0.064-0.256-0.035-0.338l-0.74-0.596
				c-0.102-0.084-0.254-0.067-0.337,0.037l-0.886,0.775c-0.083,0.104-0.066,0.258,0.038,0.34l1.031,0.563
				C38.538,50.933,38.689,50.916,38.773,50.812"/>
			<path fill="#9E1E25" d="M31.494,40.283c-0.074-0.111-0.223-0.143-0.333-0.069l-0.791,0.522c-0.11,0.074-0.142,0.224-0.068,0.335
				l0.456,1.089c0.073,0.11,0.223,0.142,0.333,0.069l0.853-0.814c0.11-0.074,0.14-0.225,0.069-0.335L31.494,40.283z"/>
			<path fill="#9E1E25" d="M20.727,44.551l-0.911,0.25c-0.128,0.035-0.204,0.169-0.168,0.299l0.248,0.918
				c0.034,0.127,0.167,0.205,0.294,0.17l1.171-0.104c0.125-0.035,0.202-0.168,0.168-0.297l-0.507-1.066
				C20.988,44.593,20.854,44.516,20.727,44.551"/>
			<path fill="#9E1E25" d="M25.417,54.066c0.058,0.045,0.109,0.098,0.172,0.136C25.526,54.164,25.474,54.111,25.417,54.066"/>
			<path fill="#9E1E25" d="M30.748,46.589c0.148,0.132,0.278,0.282,0.384,0.448C31.025,46.871,30.896,46.721,30.748,46.589"/>
			<path fill="#9E1E25" d="M24.697,51.555c-0.072,0.191-0.113,0.391-0.13,0.594C24.584,51.947,24.625,51.747,24.697,51.555"/>
			<path fill="#9E1E25" d="M24.612,52.823c-0.043-0.194-0.062-0.391-0.053-0.588C24.55,52.432,24.569,52.629,24.612,52.823"/>
			<path fill="#9E1E25" d="M28.676,55.057c-0.243-0.118-0.461-0.28-0.645-0.476C28.215,54.777,28.433,54.939,28.676,55.057"/>
			<path fill="#9E1E25" d="M28.718,46.124c-0.043,0.012-0.087,0.02-0.129,0.035C28.631,46.144,28.675,46.136,28.718,46.124"/>
			<path fill="#9E1E25" d="M29.906,55.234c-0.069,0.009-0.137,0.03-0.207,0.033C29.77,55.265,29.837,55.244,29.906,55.234"/>
			<path fill="#9E1E25" d="M24.358,49.384c-0.001-0.038,0.006-0.076,0.007-0.114C24.364,49.308,24.357,49.346,24.358,49.384"/>
			<path fill="#9E1E25" d="M24.873,53.476c-0.107-0.176-0.185-0.364-0.237-0.556C24.688,53.113,24.766,53.299,24.873,53.476"/>
			<path fill="#9E1E25" d="M25.043,50.944c-0.14,0.172-0.245,0.364-0.326,0.565C24.798,51.309,24.904,51.117,25.043,50.944
				c-0.322-0.303-0.545-0.699-0.638-1.142c-0.005-0.027-0.005-0.053-0.009-0.08c0.004,0.027,0.003,0.055,0.009,0.082
				C24.499,50.246,24.722,50.642,25.043,50.944"/>
			<path fill="#9E1E25" d="M32.86,49.108c0.055,0.065,0.096,0.139,0.144,0.21C32.956,49.248,32.916,49.174,32.86,49.108"/>
			<path fill="#9E1E25" d="M29.139,46.048c-0.053,0.004-0.106,0.005-0.159,0.014C29.033,46.053,29.086,46.052,29.139,46.048"/>
			<path fill="#9E1E25" d="M25.825,47.276c-0.075,0.026-0.143,0.065-0.215,0.1C25.681,47.342,25.75,47.302,25.825,47.276"/>
			<path fill="#9E1E25" d="M31.487,48.359c0.013-0.217-0.014-0.43-0.063-0.635C31.473,47.929,31.5,48.142,31.487,48.359"/>
			<path fill="#9E1E25" d="M26.259,47.182c0.064-0.008,0.125-0.028,0.189-0.03C26.383,47.153,26.323,47.173,26.259,47.182"/>
			<path fill="#9E1E25" d="M30.164,46.215c0.19,0.082,0.362,0.19,0.517,0.317C30.525,46.405,30.354,46.297,30.164,46.215"/>
			<path fill="#9E1E25" d="M33.273,51.246c0.02-0.059,0.035-0.12,0.05-0.181C33.309,51.125,33.293,51.187,33.273,51.246"/>
			<path fill="#9E1E25" d="M32.822,52.01c-0.041,0.045-0.08,0.092-0.124,0.133C32.743,52.101,32.781,52.055,32.822,52.01"/>
			<path fill="#9E1E25" d="M33.382,50.698c-0.005,0.065-0.011,0.129-0.021,0.192C33.371,50.827,33.377,50.763,33.382,50.698"/>
			<path fill="#9E1E25" d="M33.285,49.921c-0.027-0.092-0.051-0.182-0.089-0.269C33.234,49.738,33.258,49.83,33.285,49.921"/>
			<path fill="#9E1E25" d="M32.539,48.818c-0.056-0.043-0.102-0.096-0.162-0.134C32.437,48.722,32.484,48.775,32.539,48.818"/>
			<path fill="#9E1E25" d="M31.188,54.596c-0.143,0.15-0.307,0.279-0.49,0.383C30.881,54.874,31.043,54.746,31.188,54.596"/>
			<path fill="#9E1E25" d="M29.384,46.04c0.055,0.002,0.11,0.009,0.165,0.015C29.494,46.048,29.439,46.042,29.384,46.04"/>
			<path fill="#9E1E25" d="M31.412,47.66c-0.053-0.195-0.134-0.378-0.236-0.55C31.278,47.282,31.358,47.466,31.412,47.66"/>
			<path fill="#9E1E25" d="M26.168,54.459c-0.016-0.004-0.029-0.014-0.045-0.019c0.016,0.005,0.029,0.016,0.046,0.021
				c0.545,0.146,1.124,0.069,1.614-0.199c0-0.001,0-0.001,0-0.001C27.293,54.53,26.714,54.605,26.168,54.459"/>
			<path fill="#9E1E25" d="M32.107,52.542c0.049-0.022,0.093-0.051,0.14-0.077C32.2,52.491,32.156,52.52,32.107,52.542"/>
			<path fill="#9E1E25" d="M32.42,52.366c0.049-0.033,0.094-0.073,0.14-0.11C32.514,52.293,32.469,52.333,32.42,52.366"/>
			<path fill="#9E1E25" d="M24.566,48.426c-0.023,0.05-0.048,0.098-0.067,0.149C24.518,48.524,24.543,48.476,24.566,48.426"/>
			<path fill="#9E1E25" d="M31.261,54.51c0.14-0.163,0.265-0.34,0.354-0.542C31.525,54.168,31.401,54.347,31.261,54.51"/>
			<path fill="#9E1E25" d="M24.427,48.824c-0.012,0.049-0.028,0.097-0.037,0.147C24.399,48.921,24.415,48.874,24.427,48.824"/>
			<path fill="#9E1E25" d="M25.068,47.747c0.064-0.06,0.128-0.119,0.197-0.17C25.195,47.627,25.132,47.687,25.068,47.747"/>
			<path fill="#9E1E25" d="M33.13,51.577c0.029-0.054,0.053-0.111,0.077-0.167C33.183,51.466,33.159,51.522,33.13,51.577"/>
			<path fill="#9E1E25" d="M32.937,51.878c0.037-0.049,0.069-0.101,0.102-0.152C33.006,51.777,32.974,51.83,32.937,51.878"/>
			<path fill="#9E1E25" d="M25.801,50.491c0.104,0.07,0.216,0.121,0.327,0.155c0,0.002,0.001,0.002,0.001,0.004
				c0.063,0.022,0.118,0.071,0.144,0.14c0.045,0.119-0.006,0.248-0.116,0.306c-0.097,0.048-0.193,0.106-0.28,0.179
				c-0.582,0.477-0.673,1.338-0.199,1.925c0.473,0.586,1.328,0.675,1.91,0.199c0.098-0.079,0.181-0.169,0.251-0.267l0.001,0.001
				c0.04-0.053,0.104-0.09,0.178-0.094c0.126-0.007,0.232,0.082,0.253,0.204l0.001,0.001c0.012,0.108,0.039,0.217,0.079,0.323
				c0.271,0.706,1.056,1.057,1.758,0.785c0.7-0.271,1.049-1.064,0.78-1.768c-0.047-0.118-0.105-0.225-0.176-0.322l0.003-0.001
				c-0.039-0.055-0.054-0.127-0.035-0.199c0.033-0.122,0.15-0.196,0.271-0.18c0,0,0.001,0.001,0.002,0
				c0.105,0.021,0.216,0.03,0.33,0.024c0.75-0.041,1.325-0.687,1.284-1.441c-0.039-0.754-0.68-1.333-1.428-1.293
				c-0.126,0.006-0.245,0.031-0.358,0.067H30.78c-0.064,0.018-0.138,0.011-0.198-0.029c-0.106-0.068-0.14-0.206-0.085-0.316
				c0.053-0.096,0.094-0.199,0.123-0.311c0.194-0.73-0.236-1.48-0.962-1.675c-0.726-0.195-1.47,0.241-1.663,0.971
				c-0.032,0.122-0.047,0.244-0.047,0.363c-0.005,0.068-0.032,0.137-0.09,0.182c-0.096,0.081-0.237,0.071-0.324-0.015v0.001
				c-0.074-0.081-0.16-0.154-0.255-0.216c-0.632-0.411-1.472-0.228-1.879,0.406C24.992,49.234,25.171,50.081,25.801,50.491
				 M27.576,50.387c0.153-0.576,0.739-0.918,1.309-0.765c0.573,0.153,0.912,0.743,0.759,1.319c-0.152,0.576-0.738,0.919-1.311,0.766
				C27.763,51.554,27.423,50.963,27.576,50.387"/>
		</g>
	</g>
</g>
<g id="Hilfslinien">
</g>
</svg>
